<svg width="73" height="73" viewBox="0 0 73 73" fill="none" xmlns="http://www.w3.org/2000/svg">
<g clip-path="url(#clip0_257_208)">
<path d="M46.458 0.5C32.3342 0.5 20.5414 12.2825 20.5414 26.4166C20.5414 32.305 22.492 37.8933 26.0875 42.4438L21.8401 46.6912L21.144 45.9951C20.0451 44.8964 17.6766 44.8145 16.5509 46.0029C15.4477 47.3131 15.3123 48.6715 16.1449 50.0782L2.01041 64.2127C0.0378629 66.1833 0.242191 69.0582 2.18464 71.1085C3.96524 72.9881 7.07319 72.9395 8.90413 71.1085L14.6624 65.3502C15.0749 64.9378 15.0749 64.2692 14.6624 63.8568C14.2501 63.4447 13.5816 63.4445 13.1691 63.8568L7.41083 69.6151C6.38174 70.6443 4.70704 70.6443 3.67794 69.6151C2.75277 68.5345 2.32668 66.8818 3.50329 65.7064L17.5926 51.617L21.5006 55.5252L16.4241 60.6017C16.0116 61.0142 16.0116 61.6827 16.4241 62.0952C16.8364 62.5073 17.505 62.5073 17.9173 62.0952L23.0395 56.9729C24.4498 57.8075 25.8108 57.6698 27.1227 56.5597C28.387 55.2954 28.387 53.2383 27.1227 51.974L26.4266 51.2779L30.7058 46.9985C38.999 53.3601 50.7124 54.0518 59.7046 48.6958C60.2057 48.3974 60.3699 47.7493 60.0715 47.2484C59.7731 46.7476 59.1251 46.5831 58.6239 46.8815C49.3805 52.3868 37.2053 50.8276 29.6254 43.2477C25.2079 38.8311 22.653 32.7006 22.653 26.4165C22.653 13.4606 33.4983 2.61177 46.4578 2.61177C59.4134 2.61177 70.2614 13.4577 70.2614 26.4165C70.2614 33.224 67.2779 39.7799 62.1857 44.2849C61.7489 44.6713 61.7081 45.3386 62.0946 45.7753C62.481 46.2123 63.1483 46.2532 63.585 45.8665C69.1376 40.9526 72.3733 33.8377 72.3733 26.4165C72.3734 13.2697 61.7677 0.5 46.458 0.5V0.5ZM25.6287 55.0671C25.1877 55.5083 24.4705 55.5081 24.0296 55.0671L18.0508 49.0883C17.6423 48.68 17.6573 47.8975 18.0561 47.4839C18.5883 47.0469 19.1198 47.0484 19.6508 47.4884L25.6296 53.4674C26.0704 53.9083 26.0704 54.6256 25.6287 55.0671ZM24.9334 49.7846L23.3334 48.1845L27.4666 44.0513C27.9808 44.6039 28.5177 45.1337 29.0772 45.6405L24.9334 49.7846Z" fill="white"/>
<path d="M63.2539 14.6855C63.7132 14.3259 63.7939 13.6623 63.4343 13.2031C55.5859 3.18113 40.2586 2.19662 31.2484 11.2067C22.9703 19.4848 22.9682 33.3453 31.2484 41.6255C39.5265 49.9035 53.3868 49.9058 61.6671 41.6255C67.9553 35.3373 69.7308 25.4073 65.9674 17.3359C65.7209 16.8073 65.0929 16.5786 64.5641 16.825C64.0357 17.0715 63.8069 17.6997 64.0534 18.2283C67.4599 25.5346 65.8705 34.4355 60.1738 40.1322C52.7217 47.5846 40.1956 47.5863 32.7417 40.1322C25.2895 32.6802 25.2877 20.154 32.7417 12.7002C40.8581 4.58359 54.7011 5.4736 61.7716 14.5051C62.1312 14.964 62.7949 15.045 63.2539 14.6855Z" fill="white"/>
<path d="M54.8021 28.9325H59.5771C60.1603 28.9325 60.6331 28.4599 60.6331 27.8766C60.6331 27.2932 60.1603 26.8206 59.5771 26.8206H54.8021C54.8504 25.5374 54.6184 24.2479 54.1008 23.0706H55.8482C58.0381 23.0706 59.8197 21.289 59.8197 19.0992C59.8197 18.516 59.3469 18.0432 58.7638 18.0432C58.1806 18.0432 57.7078 18.5158 57.7078 19.0992C57.7078 20.1246 56.8736 20.9588 55.8482 20.9588H52.7629C52.0745 20.1648 51.2389 19.5016 50.2991 19.0123C52.1347 17.7739 53.3442 15.6751 53.3442 13.2991V13.2373C53.3442 12.6542 52.8714 12.1814 52.2882 12.1814C51.7051 12.1814 51.2323 12.654 51.2323 13.2373V13.2991C51.2323 15.932 49.0902 18.0741 46.4572 18.0741C43.8242 18.0741 41.682 15.932 41.682 13.2991V13.2373C41.682 12.6542 41.2093 12.1814 40.6261 12.1814C40.0429 12.1814 39.5701 12.654 39.5701 13.2373V13.2991C39.5701 15.6751 40.7796 17.7739 42.6152 19.0123C41.6754 19.5018 40.84 20.1648 40.1515 20.9588H37.0662C36.0407 20.9588 35.2065 20.1246 35.2065 19.0992C35.2065 18.516 34.7337 18.0432 34.1506 18.0432C33.5674 18.0432 33.0946 18.5158 33.0946 19.0992C33.0946 21.289 34.8762 23.0706 37.0662 23.0706H38.8136C38.2958 24.2479 38.0637 25.5374 38.1123 26.8206H33.3372C32.754 26.8206 32.2812 27.2932 32.2812 27.8766C32.2812 28.4599 32.754 28.9325 33.3372 28.9325H38.1123C38.0851 30.1986 38.3143 31.4383 38.8002 32.6516H37.0662C34.8762 32.6516 33.0946 34.4332 33.0946 36.623C33.0946 37.2062 33.5674 37.679 34.1506 37.679C34.7337 37.679 35.2065 37.2063 35.2065 36.623C35.2065 35.5976 36.0407 34.7634 37.0662 34.7634H40.1249C41.6564 36.5472 43.9271 37.6788 46.4571 37.6788C48.9871 37.6788 51.2576 36.5471 52.7893 34.7634H55.848C56.8735 34.7634 57.7077 35.5976 57.7077 36.623C57.7077 37.2062 58.1804 37.679 58.7636 37.679C59.3468 37.679 59.8196 37.2063 59.8196 36.623C59.8196 34.4332 58.038 32.6516 55.848 32.6516H54.114C54.6 31.4383 54.8292 30.1986 54.8021 28.9325ZM46.4574 20.1859C48.9957 20.1859 51.1845 21.7113 52.1554 23.8934H40.7592C41.7303 21.7113 43.919 20.1859 46.4574 20.1859ZM40.2245 29.3343C40.2245 29.3343 40.2291 26.1419 40.2381 26.0053H45.4016L45.4014 35.4776C42.4657 34.9746 40.2245 32.4113 40.2245 29.3343ZM47.5133 35.4776L47.5135 26.0053H52.6767C52.6857 26.1419 52.6903 29.3343 52.6903 29.3343C52.6902 32.4113 50.4489 34.9745 47.5133 35.4776Z" fill="white"/>
</g>
<defs>
<clipPath id="clip0_257_208">
<rect width="72" height="72" fill="white" transform="translate(0.5 0.5)"/>
</clipPath>
</defs>
</svg>
