<svg width="74" height="75" viewBox="0 0 74 75" fill="none" xmlns="http://www.w3.org/2000/svg">
<g clip-path="url(#clip0_257_228)">
<path d="M73.1346 16.8414C73.128 16.7336 73.1069 16.6264 73.0714 16.5246C73.0581 16.4849 73.0479 16.4469 73.031 16.4084C72.9708 16.2741 72.8871 16.1519 72.7841 16.0471L57.9841 1.24707C57.8794 1.14349 57.7565 1.05978 57.6216 1.00016C57.5849 0.983301 57.5475 0.973063 57.5096 0.959814C57.4048 0.923682 57.2964 0.902002 57.1862 0.895378C57.1651 0.899593 57.1428 0.885742 57.117 0.885742H20.1169C16.7132 0.889958 13.9545 3.6481 13.9503 7.05241V16.1296C5.47171 19.8687 0 28.2612 0 37.528C0 46.7949 5.47171 55.1873 13.9503 58.9265V68.7191C13.9545 72.1234 16.7132 74.8815 20.1169 74.8857H66.9836C70.3879 74.8815 73.1467 72.1234 73.1503 68.7191V16.9191C73.1503 16.892 73.137 16.8685 73.1346 16.8414ZM68.9396 15.6857H59.5836C58.9025 15.6857 58.3503 15.1335 58.3503 14.4524V5.09642L68.9396 15.6857ZM2.49256 37.528C2.48534 31.9648 4.69185 26.628 8.62551 22.6943C12.5592 18.7606 17.8966 16.5541 23.4592 16.5614C24.1602 16.5614 24.8558 16.5957 25.5423 16.6625C35.0789 17.605 42.7542 24.9098 44.1669 34.3881C44.3307 35.4269 44.4169 36.4766 44.4247 37.528C44.4337 41.4779 43.3172 45.3484 41.2071 48.687C39.5335 51.3549 37.2782 53.6095 34.6098 55.2819C28.1487 59.3396 19.9935 59.5672 13.3161 55.8757C6.6388 52.1847 2.49377 45.1575 2.49256 37.528ZM37.7835 56.0551C37.9521 55.9244 38.1189 55.795 38.2839 55.6607C38.8928 55.1705 39.4757 54.6496 40.0315 54.1003C40.5808 53.5445 41.1017 52.9622 41.5919 52.3539C41.7262 52.1889 41.8557 52.0209 41.9863 51.8523C42.1357 51.6572 42.2977 51.4723 42.4404 51.2736L52.9544 61.8002C53.6506 62.4898 54.0426 63.4292 54.0426 64.409C54.0426 65.3894 53.6506 66.3283 52.9544 67.0184C51.4983 68.4258 49.1888 68.4258 47.7327 67.0184L37.2048 56.5092C37.4035 56.3647 37.5896 56.2045 37.7835 56.0551ZM66.9836 72.4191H20.1169C18.0736 72.4191 16.4169 70.7624 16.4169 68.7191V59.8894C16.4934 59.9141 16.5735 59.9304 16.6512 59.9539C16.8487 60.0141 17.0487 60.0623 17.2486 60.1177C17.7099 60.2411 18.1748 60.3646 18.6445 60.4567C18.8752 60.5049 19.1058 60.5494 19.3389 60.5904C19.8086 60.6729 20.2826 60.7379 20.7583 60.7927C20.9709 60.8168 21.1805 60.8469 21.3936 60.865C22.0772 60.9234 22.7649 60.9614 23.4592 60.9614C27.5362 60.9644 31.5421 59.8973 35.0765 57.866L45.9814 68.76C47.5116 70.4348 49.8386 71.1346 52.0385 70.5805C54.239 70.0271 55.9577 68.3102 56.5129 66.1103C57.0688 63.9104 56.3714 61.5828 54.6973 60.0514L43.7972 49.1447C45.8285 45.6103 46.8962 41.6044 46.8926 37.528C46.8926 36.747 46.8552 35.9719 46.7794 35.2035C46.253 29.8149 43.8676 24.778 40.0328 20.9569C35.6468 16.5475 29.6789 14.0766 23.4592 14.0947C22.7649 14.0947 22.0772 14.1332 21.3936 14.191C21.1805 14.2097 20.9691 14.2392 20.7571 14.2639C20.2826 14.3169 19.811 14.3844 19.3413 14.4663C19.107 14.5072 18.8734 14.5518 18.6409 14.6006C18.1772 14.6969 17.7171 14.8101 17.2606 14.936C17.0559 14.9914 16.8511 15.0408 16.644 15.1022C16.5675 15.1257 16.4898 15.1419 16.4133 15.1666V7.05241C16.4133 5.0091 18.07 3.35241 20.1133 3.35241H55.8836V14.4524C55.8836 16.4957 57.5403 18.1524 59.5836 18.1524H70.6836V68.7191C70.6836 70.7624 69.0275 72.4191 66.9836 72.4191Z" fill="white"/>
<path d="M50.9506 9.51898C50.9506 8.83787 50.3984 8.28564 49.7173 8.28564H22.5839C21.9028 8.28564 21.3506 8.83787 21.3506 9.51898C21.3506 10.2001 21.9028 10.7523 22.5839 10.7523H49.7173C50.3984 10.7523 50.9506 10.2001 50.9506 9.51898Z" fill="white"/>
<path d="M64.5167 30.4858H49.7167C49.0356 30.4858 48.4834 31.0381 48.4834 31.7192C48.4834 32.4003 49.0356 32.9525 49.7167 32.9525H64.5167C65.1978 32.9525 65.7501 32.4003 65.7501 31.7192C65.7501 31.0381 65.1978 30.4858 64.5167 30.4858Z" fill="white"/>
<path d="M64.5167 37.8857H49.7167C49.0356 37.8857 48.4834 38.438 48.4834 39.1191C48.4834 39.8002 49.0356 40.3524 49.7167 40.3524H64.5167C65.1978 40.3524 65.7501 39.8002 65.7501 39.1191C65.7501 38.438 65.1978 37.8857 64.5167 37.8857Z" fill="white"/>
<path d="M65.75 46.519C65.75 45.8379 65.1978 45.2856 64.5167 45.2856H48.4833C47.8022 45.2856 47.25 45.8379 47.25 46.519C47.25 47.2001 47.8022 47.7523 48.4833 47.7523H64.5167C65.1978 47.7523 65.75 47.2001 65.75 46.519Z" fill="white"/>
<path d="M65.7503 53.9189C65.7503 53.2378 65.198 52.6855 64.5169 52.6855H53.4169C52.7358 52.6855 52.1836 53.2378 52.1836 53.9189C52.1836 54.6 52.7358 55.1522 53.4169 55.1522H64.5169C65.198 55.1522 65.7503 54.6 65.7503 53.9189Z" fill="white"/>
<path d="M50.9505 16.9189C50.9505 16.2378 50.3983 15.6855 49.7172 15.6855H39.8505C39.1694 15.6855 38.6172 16.2378 38.6172 16.9189C38.6172 17.6 39.1694 18.1522 39.8505 18.1522H49.7172C50.3983 18.1522 50.9505 17.6 50.9505 16.9189Z" fill="white"/>
<path d="M65.7499 24.3193C65.7499 23.6382 65.1976 23.0859 64.5165 23.0859H46.0165C45.3354 23.0859 44.7832 23.6382 44.7832 24.3193C44.7832 25.0004 45.3354 25.5526 46.0165 25.5526H64.5165C65.1976 25.5526 65.7499 25.0004 65.7499 24.3193Z" fill="white"/>
<path d="M18.8837 31.7191H27.5171C28.1982 31.7191 28.7504 31.1669 28.7504 30.4858C28.7504 29.8047 28.1982 29.2524 27.5171 29.2524H18.8837C18.2026 29.2524 17.6504 29.8047 17.6504 30.4858C17.6504 31.1669 18.2026 31.7191 18.8837 31.7191Z" fill="white"/>
<path d="M33.6835 37.8857C33.6835 37.2046 33.1312 36.6523 32.4501 36.6523H13.9501C13.269 36.6523 12.7168 37.2046 12.7168 37.8857C12.7168 38.5668 13.269 39.119 13.9501 39.119H32.4501C33.1312 39.119 33.6835 38.5668 33.6835 37.8857Z" fill="white"/>
<path d="M27.5171 44.0525H18.8837C18.2026 44.0525 17.6504 44.6047 17.6504 45.2858C17.6504 45.9669 18.2026 46.5192 18.8837 46.5192H27.5171C28.1982 46.5192 28.7504 45.9669 28.7504 45.2858C28.7504 44.6047 28.1982 44.0525 27.5171 44.0525Z" fill="white"/>
<path d="M32.2386 53.7956C35.2466 52.1937 37.741 49.774 39.4338 46.8166C39.5314 46.6462 39.6374 46.4811 39.7289 46.3083C39.7765 46.2192 39.8138 46.127 39.8596 46.0379C40.0469 45.6778 40.2293 45.3177 40.3907 44.9491C40.5527 44.5806 40.6798 44.2301 40.8117 43.8675C40.8496 43.7628 40.8978 43.6604 40.9351 43.5544C44.0715 34.4339 39.6753 24.4335 30.8348 20.5787C21.9937 16.724 11.6748 20.3083 7.12686 28.8134C5.6954 31.4927 4.94986 34.4851 4.95708 37.5232C4.94564 44.0416 8.36923 50.0836 13.9668 53.4235C19.5644 56.7639 26.5073 56.9079 32.2386 53.8029V53.7956ZM15.7734 51.5982C14.4311 50.8665 13.2014 49.9451 12.1216 48.8623C11.3725 48.1137 10.6986 47.2941 10.109 46.4143C9.81755 45.9783 9.54956 45.5309 9.30326 45.0714C5.59121 38.0622 7.55804 29.3921 13.9313 24.6714C20.3045 19.9506 29.1715 20.5962 34.7944 26.1902C39.7741 31.2168 40.8942 38.9035 37.5567 45.1424V45.1527C36.0861 47.9042 33.8314 50.1571 31.0793 51.6265C26.305 54.2202 20.54 54.2112 15.7734 51.603V51.5982Z" fill="white"/>
<path d="M66.9839 60.0859C66.3028 60.0859 65.7506 60.6382 65.7506 61.3193V66.2526C65.7506 66.9337 65.1984 67.4859 64.5173 67.4859H59.5839C58.9028 67.4859 58.3506 68.0382 58.3506 68.7193C58.3506 69.4004 58.9028 69.9526 59.5839 69.9526H64.5173C66.5612 69.9526 68.2173 68.2959 68.2173 66.2526V61.3193C68.2173 60.6382 67.665 60.0859 66.9839 60.0859Z" fill="white"/>
</g>
<defs>
<clipPath id="clip0_257_228">
<rect width="74" height="74" fill="white" transform="translate(0 0.885742)"/>
</clipPath>
</defs>
</svg>
