<svg width="74" height="74" viewBox="0 0 74 74" fill="none" xmlns="http://www.w3.org/2000/svg">
<path d="M24.301 53.2803C24.301 47.9779 19.9871 43.6641 14.6847 43.6641C9.38237 43.6641 5.06836 47.9779 5.06836 53.2803C5.06836 58.5827 9.38223 62.8965 14.6846 62.8965C19.987 62.8965 24.301 58.5827 24.301 53.2803ZM14.6846 60.7243C10.58 60.7243 7.24057 57.3851 7.24057 53.2803C7.24057 49.1755 10.58 45.8363 14.6846 45.8363C18.7892 45.8363 22.1286 49.1757 22.1286 53.2803C22.1286 57.3849 18.7893 60.7243 14.6846 60.7243Z" fill="#219653"/>
<path d="M14.6848 49.6599C12.6885 49.6599 11.0645 51.284 11.0645 53.2803C11.0645 55.2765 12.6885 56.9006 14.6848 56.9006C16.6811 56.9006 18.3052 55.2765 18.3052 53.2803C18.3052 51.284 16.6811 49.6599 14.6848 49.6599ZM14.6848 54.7284C13.8863 54.7284 13.2367 54.0788 13.2367 53.2803C13.2367 52.4818 13.8863 51.8321 14.6848 51.8321C15.4833 51.8321 16.1329 52.4818 16.1329 53.2803C16.1329 54.0788 15.4833 54.7284 14.6848 54.7284Z" fill="#219653"/>
<path d="M20.105 32.6628H38.8368C40.0745 32.6628 41.0814 31.6559 41.0814 30.4182V17.5112C41.0814 16.2735 40.0745 15.2666 38.8368 15.2666H20.105C18.8672 15.2666 17.8604 16.2735 17.8604 17.5112V30.4182C17.8604 31.6559 18.8672 32.6628 20.105 32.6628ZM20.0326 17.5112C20.0326 17.4714 20.0651 17.4388 20.105 17.4388H38.8368C38.8766 17.4388 38.9092 17.4714 38.9092 17.5112V30.4182C38.9092 30.458 38.8766 30.4906 38.8368 30.4906H20.105C20.0651 30.4906 20.0326 30.458 20.0326 30.4182V17.5112Z" fill="#219653"/>
<path d="M71.3938 49.3408L73.3143 47.4202C73.6336 47.1007 73.8116 46.6584 73.8023 46.2069C73.7932 45.7573 73.5984 45.3244 73.2681 45.0197C71.82 43.6843 70.1566 42.6474 68.364 41.9419V40.0255C68.364 36.8185 65.9722 34.0438 62.8009 33.5716L57.6912 32.8102V25.944C57.6912 25.0257 56.9441 24.2786 56.0258 24.2786H55.141V18.9267L58.4693 16.4792C58.9525 16.1238 59.0562 15.4441 58.7008 14.9608C58.3456 14.4776 57.6655 14.3737 57.1824 14.7293L53.6519 17.3256C53.2242 17.637 52.9688 18.1395 52.9688 18.6699V24.2786H52.0827C51.1644 24.2786 50.4173 25.0257 50.4173 25.944V31.7264L46.4161 31.1302C46.0937 31.082 45.8599 30.8107 45.8599 30.4853V13.3842H46.1337C47.3714 13.3842 48.3783 12.3773 48.3783 11.1396V8.27953C48.3783 7.0418 47.3714 6.03491 46.1337 6.03491H41.575C40.975 6.03491 40.4889 6.52105 40.4889 7.12102C40.4889 7.72098 40.975 8.20712 41.575 8.20712H46.1337C46.1735 8.20712 46.2061 8.23971 46.2061 8.27953V11.1396C46.2061 11.1794 46.1735 11.212 46.1337 11.212H12.8074C12.7668 11.212 12.735 11.1802 12.735 11.1396V8.27953C12.735 8.23898 12.7668 8.20712 12.8074 8.20712H36.5062C37.1061 8.20712 37.5923 7.72098 37.5923 7.12102C37.5923 6.52105 37.1061 6.03491 36.5062 6.03491H12.8074C11.5696 6.03491 10.5627 7.0418 10.5627 8.27953V11.1396C10.5627 12.3773 11.5696 13.3842 12.8074 13.3842H13.0811V34.318C8.61383 34.6887 4.4636 36.605 1.24077 39.8222C0.926231 40.1366 0.753033 40.5553 0.753033 41.001C0.753033 41.4467 0.926231 41.8654 1.24048 42.1796L3.20025 44.1394C1.19848 46.6496 0 49.8274 0 53.2805C0 56.6241 1.15388 59.8962 3.24919 62.4937C5.31279 65.0524 8.20415 66.8638 11.3904 67.5941C11.975 67.7276 12.5578 67.3628 12.6917 66.778C12.8257 66.1934 12.4602 65.6107 11.8756 65.4768C6.16242 64.1672 2.17221 59.1519 2.17221 53.2805C2.17221 46.3807 7.78506 40.7671 14.6841 40.7671C21.584 40.7671 27.1974 46.3807 27.1974 53.2805C27.1974 59.4332 22.6165 64.7533 16.5418 65.655C15.9485 65.7431 15.5388 66.2955 15.627 66.889C15.7071 67.4283 16.1707 67.8156 16.7 67.8156C16.753 67.8156 16.8068 67.8117 16.8608 67.8038C20.3077 67.292 23.4716 65.5548 25.7698 62.9122C27.1077 61.3739 28.0967 59.5851 28.6966 57.6684H31.8358C32.6606 57.6684 33.3531 57.0751 33.4823 56.2564C33.5801 55.632 33.6454 54.9992 33.6811 54.3666H47.0447C46.9715 54.885 46.9231 55.4093 46.9017 55.9383C46.8838 56.3873 47.0526 56.8311 47.3648 57.1559C47.6777 57.4816 48.1161 57.6684 48.5676 57.6684H51.2863C51.8355 63.4372 56.7064 67.9651 62.6166 67.9651C68.8934 67.9651 73.9998 62.8585 73.9998 56.5818C74 53.8336 73.021 51.3099 71.3938 49.3408ZM52.5892 26.4508H55.5187V32.4865L52.5892 32.05V26.4508ZM43.6875 13.3842V30.4853C43.6875 31.8949 44.6998 33.0698 46.095 33.2785L62.4808 35.7201C64.5962 36.0352 66.1916 37.886 66.1916 40.0255V41.2653C65.0295 40.994 63.831 40.854 62.6162 40.854C60.4807 40.854 58.4034 41.2824 56.4855 42.0965H30.057C29.5285 41.3749 28.9467 40.6843 28.3116 40.0307C24.8285 36.4466 20.2017 34.4056 15.2533 34.26V13.3842H43.6875ZM50.0253 47.165H32.7041C32.3636 46.1671 31.9387 45.199 31.4339 44.2687H52.8402C52.4522 44.5779 52.0766 44.9065 51.7151 45.2546C51.0961 45.8507 50.5323 46.4899 50.0253 47.165ZM31.5392 53.5478C31.5294 54.1967 31.4817 54.8506 31.3973 55.4962H29.1984C29.3096 54.7667 29.3697 54.0266 29.3697 53.2805C29.3697 45.1828 22.7819 38.5949 14.6843 38.5949C10.8208 38.5949 7.30153 40.0956 4.67706 42.544L3.13957 41.0065C6.34155 37.9907 10.5013 36.3703 14.9089 36.424C19.3949 36.4825 23.6015 38.3011 26.7538 41.5446C29.9095 44.7918 31.6089 49.0544 31.5392 53.5478ZM33.6824 52.1944C33.6277 51.2272 33.5 50.2727 33.3019 49.3374H48.6567C48.1817 50.2493 47.7975 51.2053 47.5106 52.1944H33.6824ZM62.6162 43.0262C65.8478 43.0262 68.9458 44.1723 71.3983 46.2643L69.8577 47.8046C67.8887 46.1772 65.3649 45.1983 62.6167 45.1983C56.7062 45.1983 51.835 49.7268 51.2865 55.496H49.104C49.6592 48.4617 55.4957 43.0262 62.6162 43.0262ZM62.6167 65.7927C57.5378 65.7927 53.4057 61.6606 53.4057 56.5817C53.4057 51.5028 57.5378 47.3706 62.6167 47.3706C67.6957 47.3706 71.8278 51.5026 71.8278 56.5817C71.8278 61.6608 67.6957 65.7927 62.6167 65.7927Z" fill="#219653"/>
<path d="M62.6165 50.2668C59.1345 50.2668 56.3018 53.0997 56.3018 56.5816C56.3018 60.0635 59.1346 62.8964 62.6165 62.8964C66.0984 62.8964 68.9313 60.0638 68.9313 56.5818C68.9313 53.0997 66.0984 50.2668 62.6165 50.2668ZM62.6165 60.7243C60.3324 60.7243 58.474 58.8659 58.474 56.5818C58.474 54.2976 60.3324 52.4392 62.6165 52.4392C64.9007 52.4392 66.7591 54.2975 66.7591 56.5818C66.7591 58.8661 64.9007 60.7243 62.6165 60.7243Z" fill="#219653"/>
</svg>
