<svg width="74" height="75" viewBox="0 0 74 75" fill="none" xmlns="http://www.w3.org/2000/svg">
<g clip-path="url(#clip0_257_257)">
<path d="M46.6384 55.3647C46.0399 55.3647 45.5544 55.8503 45.5544 56.4493V57.1477H41.4398C40.4941 57.1477 39.7246 57.9014 39.7246 58.8279V66.2667C39.7246 66.969 40.0227 67.6527 40.5421 68.1428L42.5712 70.0589C44.0233 71.4303 46.3866 71.4303 47.8392 70.0589L49.8689 68.1428C50.3883 67.6527 50.6858 66.9685 50.6858 66.2667V58.8279C50.6858 57.9014 49.9163 57.1477 48.9712 57.1477H47.7224V56.4493C47.7229 55.8503 47.2374 55.3647 46.6384 55.3647ZM48.5179 59.3156V66.2667C48.5179 66.3762 48.4688 66.4829 48.3807 66.5665L46.351 68.4827C45.73 69.0687 44.6805 69.0687 44.0594 68.4827L42.0303 66.5665C41.9417 66.4829 41.8931 66.3762 41.8931 66.2667V59.3156H45.5544V59.8215C45.5544 60.4205 46.0399 60.9055 46.6384 60.9055C47.2374 60.9055 47.7229 60.4205 47.7229 59.8215V59.3156H48.5179Z" fill="#219653"/>
<path d="M14.1449 74.5H60.3994C61.965 74.5 63.2387 73.2263 63.2387 71.6608V63.4586C63.2387 62.8602 62.7531 62.3746 62.1541 62.3746C61.5557 62.3746 61.0701 62.8602 61.0701 63.4586V71.6608C61.0701 72.0305 60.7692 72.332 60.3994 72.332H54.1541V62.2092C54.1541 61.6102 53.6691 61.1252 53.0701 61.1252C52.4711 61.1252 51.9861 61.6102 51.9861 62.2092V72.332H38.2336V51.5178C38.2336 50.9188 37.7487 50.4333 37.1497 50.4333C36.5512 50.4333 36.0657 50.9188 36.0657 51.5178V72.332H22.5576V63.0154C22.5576 62.4164 22.0727 61.9309 21.4737 61.9309C20.8752 61.9309 20.3897 62.4164 20.3897 63.0154V72.332H14.1449C13.7746 72.332 13.4736 72.0305 13.4736 71.6608V54.5993C13.4736 49.4735 17.8005 47.5472 18.0619 47.4354L26.2635 44.2557L29.8158 51.5235C29.817 51.5263 29.8181 51.5286 29.8198 51.5314C30.3482 52.5905 31.7004 52.9321 32.6686 52.2444L37.2852 48.966L41.9017 52.2444C42.862 52.9265 44.2181 52.599 44.7488 51.5353L48.3943 44.3037L56.4818 47.4354C56.6828 47.5218 61.0701 49.4758 61.0701 54.5993V58.4C61.0701 58.999 61.5551 59.484 62.1541 59.484C62.7531 59.484 63.2381 58.999 63.2381 58.4V54.5993C63.2381 47.9452 57.5421 45.5271 57.2993 45.4272C57.2926 45.4244 57.2858 45.4216 57.2785 45.4187L44.4581 40.4539C44.0324 40.2884 43.7309 39.8723 43.7309 39.3925V36.9653C44.2102 36.5961 44.6568 36.1862 45.0661 35.7397H48.9572C50.3274 35.7397 51.4419 34.6246 51.4419 33.2544V30.7313C54.2518 29.8788 56.243 27.3122 56.243 24.3206C56.243 22.5484 55.543 20.9263 54.389 19.7204V17.7387C54.389 8.23355 46.6554 0.5 37.1497 0.5C27.6445 0.5 19.9109 8.23355 19.9109 17.7387V19.7215C18.7575 20.9275 18.0574 22.5489 18.0574 24.3206C18.0574 27.4731 20.2694 30.1526 23.3193 30.8521C23.6597 31.708 24.4947 32.3149 25.4697 32.3149H26.4735C26.6926 32.3149 26.9032 32.2822 27.1036 32.2257C27.8274 34.2305 29.1214 35.9102 30.7971 37.1144V39.3936C30.7971 39.8678 30.4888 40.293 30.0704 40.4544L17.2648 45.4193C17.258 45.4221 17.2512 45.4244 17.2444 45.4278C17.0017 45.5271 11.3057 47.9458 11.3057 54.5993V71.6613C11.3057 73.2263 12.5793 74.5 14.1449 74.5ZM31.6388 50.3164L28.2926 43.4693L30.8541 42.4762C31.0449 42.4022 31.2724 42.2876 31.4627 42.1634L35.7196 47.4179L31.6388 50.3164ZM42.9349 50.3181L38.8541 47.4202L43.115 42.1961C43.2471 42.278 43.4825 42.4011 43.675 42.4756L46.363 43.5167L42.9349 50.3181ZM41.673 35.7397C40.9927 36.1597 40.2633 36.4781 39.5022 36.687C39.7603 36.4149 39.9675 36.0942 40.108 35.7397H41.673ZM37.3602 35.4433C36.9261 35.4433 36.5727 35.0898 36.5727 34.6557C36.5727 34.2209 36.9261 33.8675 37.3602 33.8675C37.795 33.8675 38.1484 34.2209 38.1484 34.6557C38.1484 35.0898 37.795 35.4433 37.3602 35.4433ZM48.9572 33.5717H46.5961C46.8253 33.1404 47.0269 32.6921 47.1957 32.2257C47.3967 32.2822 47.6078 32.3149 47.8263 32.3149H48.8302C48.982 32.3149 49.1299 32.2991 49.2739 32.2715V33.2544C49.2739 33.4294 49.1316 33.5717 48.9572 33.5717ZM47.679 18.6432C47.679 18.5613 47.745 18.4953 47.8263 18.4953H48.8302C48.9148 18.4953 48.9781 18.5704 48.9781 18.6432V29.9991C48.9781 30.0804 48.9115 30.147 48.8302 30.147H47.8263C47.745 30.147 47.679 30.0804 47.679 29.9991C47.679 29.4158 47.679 19.0237 47.679 18.6432ZM51.146 28.5413V20.1009C51.6734 20.303 52.1583 20.5944 52.5812 20.9732C52.6055 20.9946 52.632 21.0127 52.6574 21.0325C53.5398 21.8556 54.0751 23.0175 54.0751 24.3206C54.0751 26.2209 52.8782 27.8689 51.146 28.5413ZM22.0795 17.7387C22.0795 9.42876 28.8397 2.66797 37.1497 2.66797C45.4596 2.66797 52.2204 9.42876 52.2204 17.7387V18.1949C51.8659 18.0391 51.4966 17.9132 51.1156 17.8189C51.093 11.2636 46.4352 5.53883 40.0233 4.1974C39.4379 4.07545 38.8631 4.45033 38.7406 5.03693C38.6176 5.62296 38.9936 6.19713 39.5796 6.31964C44.4999 7.34943 48.1973 11.4353 48.846 16.3279C48.8409 16.3279 48.8358 16.3273 48.8302 16.3273H47.8263C46.8711 16.3273 46.0039 16.9246 45.6612 17.8212C45.3191 17.7805 45.0526 17.4886 45.0526 17.1358C45.0526 15.7401 44.1109 14.5207 42.7627 14.1695C39.0907 13.2154 35.2098 13.2154 31.5378 14.1695C30.1896 14.5207 29.2479 15.7401 29.2479 17.1358C29.2479 17.4886 28.9814 17.7805 28.6393 17.8212C28.2999 16.9286 27.4333 16.3273 26.4741 16.3273H25.4703C25.4646 16.3273 25.459 16.3279 25.4528 16.3279C26.1066 11.3376 29.8966 7.22974 34.9444 6.2756C35.5322 6.16438 35.9189 5.59755 35.8077 5.0087C35.697 4.42097 35.1307 4.03424 34.5413 4.1449C27.9764 5.3864 23.2069 11.1326 23.1843 17.8189C22.8038 17.9132 22.4346 18.0391 22.0795 18.1949V17.7387ZM20.2254 24.3206C20.2254 23.0237 20.7555 21.8669 21.6306 21.0443C21.6611 21.0223 21.6905 20.9986 21.7187 20.9738C22.141 20.5949 22.6271 20.303 23.1538 20.1009V28.5413C21.4223 27.8689 20.2254 26.2209 20.2254 24.3206ZM26.4735 30.147H25.4697C25.3884 30.147 25.3224 30.0804 25.3224 29.9991V29.9121C25.3224 28.9043 25.3224 19.6538 25.3224 18.6432C25.3224 18.5681 25.3879 18.4953 25.4697 18.4953H26.4735C26.5548 18.4953 26.6215 18.5613 26.6215 18.6432V29.9979C26.6215 29.9991 26.6209 30.0002 26.6209 30.0013C26.6198 30.0815 26.5543 30.147 26.4735 30.147ZM28.7832 30.1679C28.7934 30.0329 28.7894 30.6856 28.7894 19.9818C30.2573 19.8627 31.4158 18.633 31.4158 17.1358C31.4158 16.727 31.6902 16.3702 32.0832 16.268C35.3983 15.4065 38.9027 15.4065 42.2167 16.268C42.6097 16.3702 42.884 16.727 42.884 17.1358C42.884 18.633 44.0431 19.8627 45.5105 19.9818C45.5105 30.6811 45.5065 30.0374 45.5172 30.1724C45.2778 31.437 44.7624 32.5888 44.0414 33.5717H40.1075C39.6739 32.477 38.6074 31.6996 37.3602 31.6996C35.7309 31.6996 34.4047 33.0257 34.4047 34.6557C34.4047 35.4867 34.7508 36.2376 35.3052 36.7757C31.9753 36.0569 29.4218 33.5452 28.7832 30.1679ZM41.5624 38.252V39.393C41.5624 39.7583 41.6262 40.114 41.7408 40.4499L37.288 45.9105L32.8109 40.3839C32.9114 40.0677 32.965 39.7346 32.965 39.3936V38.3203C35.5542 39.3812 38.7384 39.5003 41.5624 38.252Z" fill="#219653"/>
</g>
<defs>
<clipPath id="clip0_257_257">
<rect width="74" height="74" fill="white" transform="translate(0 0.5)"/>
</clipPath>
</defs>
</svg>
