<svg width="74" height="75" viewBox="0 0 74 75" fill="none" xmlns="http://www.w3.org/2000/svg">
<path d="M72.9141 62.424H70.7361L63.3691 59.1728C57.6256 56.6385 51.1366 56.0698 45.0446 57.5567L43.4918 56.6545C38.9712 54.0282 34.1703 52.5934 29.2221 52.3896C24.2851 52.1874 19.4349 53.2182 14.8068 55.456C14.2669 55.7171 14.0407 56.3664 14.3019 56.9063C14.563 57.4462 15.2125 57.6722 15.7522 57.4112C24.4521 53.2048 33.9162 53.6028 42.4009 58.5323L49.0993 62.4239H6.94486L11.3932 59.8397C11.9118 59.5384 12.0879 58.8738 11.7866 58.3553C11.4853 57.8366 10.8206 57.6605 10.3023 57.9619L2.62161 62.424H1.08588C0.486185 62.424 0 62.9102 0 63.5099C0 64.1096 0.486185 64.5958 1.08588 64.5958H72.9141C73.514 64.5958 74 64.1096 74 63.5099C74 62.9102 73.514 62.424 72.9141 62.424ZM47.8873 59.2081C52.8161 58.4694 57.9112 59.138 62.4924 61.1596L65.3573 62.4239H53.4226L47.8873 59.2081Z" fill="#219653"/>
<path d="M31.1538 22.687C32.1536 23.7195 33.4867 24.2384 34.8216 24.2384C36.1002 24.2384 37.3803 23.7621 38.369 22.8049C39.3486 21.8573 39.9002 20.5848 39.9225 19.2218C39.9448 17.8586 39.4349 16.5685 38.4868 15.5894C38.2801 15.3759 38.014 15.1381 37.6957 14.8826C37.2281 14.5072 36.5446 14.5819 36.1691 15.0494C35.7937 15.517 35.8684 16.2006 36.3359 16.576C36.5803 16.7722 36.7843 16.9533 36.9264 17.1C37.4709 17.6623 37.7638 18.4033 37.751 19.1863C37.7382 19.9692 37.4214 20.7 36.8586 21.2444C35.6976 22.3682 33.8387 22.3378 32.7142 21.1765C32.0534 20.494 30.8805 18.6911 30.0616 16.8559C28.9978 14.472 29.1826 13.5263 29.2854 13.4197C29.3812 13.334 30.2056 13.1833 32.2274 14.0882C32.7748 14.333 33.4171 14.088 33.6622 13.5406C33.9072 12.9932 33.6621 12.3509 33.1146 12.1058C30.5402 10.9536 28.7934 10.8728 27.7753 11.8589C26.7039 12.8954 26.8007 14.8629 28.0631 17.7066C28.9124 19.6199 30.2123 21.7145 31.1538 22.687Z" fill="#219653"/>
<path d="M41.9354 38.5375C42.6593 38.8945 43.4277 39.0637 44.185 39.0637C46.0676 39.0637 47.8816 38.0185 48.7695 36.2191C49.3684 35.0051 49.9657 32.6134 50.1895 30.5321C50.5222 27.4382 50.0129 25.5352 48.6759 24.8755C47.3391 24.2156 45.5188 24.9698 43.2662 27.1162C41.7506 28.5603 40.2161 30.4894 39.6171 31.7034C38.3721 34.2267 39.4121 37.2925 41.9354 38.5375ZM41.5646 32.6642C41.9855 31.8113 43.2891 30.0988 44.7423 28.7094C46.4255 27.1 47.3643 26.8122 47.6427 26.8122C47.6763 26.8122 47.7004 26.8164 47.715 26.823C47.8452 26.8924 48.3103 27.7343 48.0269 30.3296C47.8085 32.3283 47.2427 34.4051 46.822 35.2583C46.1067 36.7077 44.3457 37.3053 42.8963 36.59C41.4469 35.8746 40.8495 34.1136 41.5646 32.6642Z" fill="#219653"/>
<path d="M25.3513 46.1209C26.2548 47.8797 28.0454 48.8918 29.8988 48.8918C30.6828 48.8918 31.478 48.7108 32.2219 48.3285C34.7248 47.043 35.7151 43.9608 34.4295 41.4578C33.8112 40.2538 32.2455 38.3496 30.7069 36.9303C28.4196 34.8203 26.5876 34.096 25.2615 34.7772C23.9353 35.4584 23.4569 37.3696 23.8396 40.4575C24.0972 42.5349 24.7329 44.9167 25.3513 46.1209ZM26.2537 36.709C26.2691 36.7017 26.2953 36.697 26.3326 36.697C26.6195 36.697 27.5613 36.9779 29.2564 38.5469C30.7319 39.9128 32.0632 41.6041 32.4978 42.4502C33.2362 43.8879 32.6674 45.6583 31.2297 46.3967C29.7918 47.1351 28.0216 46.5662 27.2832 45.1285C26.8487 44.2824 26.2492 42.2152 25.9986 40.2202C25.6732 37.6299 26.1247 36.7804 26.2537 36.709Z" fill="#219653"/>
</svg>
