<svg width="74" height="75" viewBox="0 0 74 75" fill="none" xmlns="http://www.w3.org/2000/svg">
<path d="M46.6023 56.606C46.5544 55.9971 46.0208 55.5433 45.4131 55.5905L36.5842 56.2865C35.9755 56.3344 35.5209 56.867 35.5689 57.4758C35.6146 58.0551 36.0988 58.4946 36.6699 58.4946C36.6991 58.4946 36.7285 58.4934 36.7581 58.4911L45.5868 57.7952C46.1956 57.7472 46.6503 57.2148 46.6023 56.606Z" fill="#219653"/>
<path d="M71.5778 38.9333H65.243C63.9075 38.9333 62.8209 40.0197 62.8209 41.3553V43.4165H61.0669C58.9255 43.4165 56.8025 43.7285 54.763 44.3292C52.7214 41.5359 49.5132 39.8934 46.0154 39.8934C46.0085 39.8934 46.0008 39.8934 45.9939 39.8934C45.6078 39.8941 45.2183 39.9161 44.8293 39.9592C43.0368 36.5549 39.575 34.3511 35.7143 34.1801L35.7315 28.8225C35.7475 28.7157 35.7478 28.6074 35.7325 28.5006L35.7436 25.042C35.7448 25.0014 35.7461 24.9209 35.7448 24.8044L35.8663 24.6617C36.6977 23.6846 37.6276 22.592 38.7796 21.4118C40.2274 21.8559 41.7414 22.0758 43.2702 22.0758C46.3912 22.0758 49.5713 21.1636 52.3587 19.3963C53.7272 18.5288 55.1293 17.5027 56.6451 16.2594C57.1173 15.8721 57.1861 15.1754 56.7987 14.7033C56.4115 14.2309 55.7148 14.1618 55.2426 14.5495C53.797 15.7352 52.4664 16.7096 51.1746 17.5285C47.9995 19.5416 44.115 20.2797 40.6494 19.6007C46.99 13.7598 54.6405 9.60435 63.459 7.20427C62.6509 7.91825 61.8612 8.63599 61.0958 9.33884C60.6459 9.75177 60.6161 10.4514 61.0292 10.9012C61.4422 11.3511 62.1419 11.3808 62.5915 10.9679C64.4318 9.27771 66.3999 7.49737 68.4469 5.93832C68.4505 5.93557 68.4536 5.9321 68.4572 5.92936C68.4939 5.90074 68.5292 5.87053 68.5617 5.83773C68.5623 5.83715 68.5627 5.83657 68.5633 5.83599C68.5942 5.80463 68.6225 5.7711 68.6494 5.73641C68.6572 5.72644 68.6646 5.71632 68.672 5.70606C68.6935 5.67643 68.7134 5.64579 68.7318 5.61399C68.736 5.60662 68.7408 5.59968 68.7449 5.59231C68.7663 5.55343 68.7853 5.51311 68.8019 5.47192C68.8055 5.4631 68.8084 5.45414 68.8117 5.44518C68.8247 5.41035 68.836 5.37494 68.8455 5.3388C68.848 5.32912 68.8507 5.31973 68.8531 5.3099C68.8736 5.22217 68.8834 5.1314 68.8817 5.03861C68.8815 5.02662 68.8808 5.01462 68.8801 5.00263C68.8782 4.96693 68.8746 4.93094 68.8691 4.89495C68.8679 4.887 68.8681 4.87905 68.8666 4.87096C68.8661 4.86749 68.8648 4.86417 68.8642 4.8607C68.8633 4.85549 68.863 4.85043 68.862 4.84523C68.8541 4.80476 68.8437 4.76545 68.8317 4.72715C68.8295 4.72036 68.8267 4.714 68.8244 4.7072C68.8119 4.66948 68.7973 4.63277 68.7809 4.59722C68.7763 4.58724 68.7717 4.57742 68.7668 4.56773C68.7486 4.53102 68.7288 4.49532 68.7068 4.46121C68.7042 4.45717 68.702 4.45312 68.6994 4.44907C68.6741 4.41092 68.6465 4.37464 68.617 4.34024C68.6108 4.33301 68.6042 4.32622 68.5978 4.31914C68.5737 4.2924 68.5485 4.26711 68.5221 4.24297C68.5131 4.23473 68.5043 4.22649 68.495 4.21855C68.4617 4.19007 68.4273 4.16305 68.3908 4.13876C68.3855 4.13515 68.3796 4.13212 68.3741 4.12865C68.3416 4.10769 68.3079 4.08876 68.2732 4.07141C68.2618 4.06578 68.2505 4.06028 68.2388 4.05494C68.2008 4.03745 68.1621 4.02169 68.1222 4.0084C68.1196 4.00753 68.1171 4.00623 68.1144 4.00536C68.1131 4.00493 68.1116 4.00449 68.1103 4.00406C68.1074 4.00319 68.1045 4.00233 68.1018 4.00146C64.2033 2.75329 59.8381 2.15753 55.8084 2.32302C51.1972 2.51279 47.052 3.68234 43.8212 5.70519C41.3513 7.25153 39.3176 9.47412 38.0944 11.9635C36.8063 14.5849 36.5118 17.2924 37.2239 19.8395C36.5437 20.5355 35.9337 21.2063 35.385 21.8309C34.7914 19.0052 33.232 14.7261 29.1568 10.6148C28.7268 10.181 28.0265 10.178 27.5929 10.608C27.1592 11.0379 27.1562 11.7379 27.586 12.1718C33.6585 18.2977 33.5347 24.9204 33.533 24.9835C33.5326 24.9954 33.5324 25.0073 33.5323 25.0193L33.5288 26.1004C32.8777 25.5197 32.1303 24.8823 31.299 24.2177C31.5917 22.1996 31.1097 20.1564 29.8839 18.2713C28.7145 16.4729 26.9486 14.9549 24.9114 13.9969C22.2629 12.7514 19.0011 12.2399 15.4782 12.5178C12.4157 12.7595 9.16943 13.6066 6.33373 14.9034C6.28011 14.9264 6.22909 14.9537 6.18009 14.9847C6.17604 14.9873 6.172 14.9899 6.16795 14.9925C6.0873 15.0448 6.01388 15.1072 5.94942 15.1785C5.94624 15.1819 5.9432 15.1856 5.94017 15.1892C5.91069 15.2226 5.88322 15.2577 5.85793 15.2945C5.85605 15.2973 5.85403 15.2997 5.85229 15.3025C5.82527 15.3427 5.80055 15.3844 5.77887 15.4282C5.77887 15.4284 5.77873 15.4284 5.77873 15.4284C5.75878 15.4687 5.74187 15.5106 5.72684 15.5534C5.72366 15.5622 5.72077 15.571 5.71788 15.58C5.70545 15.6184 5.69505 15.6579 5.68681 15.6982C5.68551 15.7044 5.68377 15.7103 5.68262 15.7166C5.67524 15.7563 5.66961 15.7968 5.66643 15.838C5.66599 15.8433 5.66643 15.8487 5.66599 15.854C5.66585 15.8573 5.66498 15.8607 5.66484 15.864C5.6644 15.8716 5.66542 15.8792 5.66527 15.8867C5.66412 15.924 5.66484 15.9608 5.6673 15.9974C5.66802 16.0087 5.66874 16.0201 5.6699 16.0314C5.67915 16.1241 5.69996 16.2136 5.73103 16.2987C5.73421 16.3075 5.73797 16.3162 5.74129 16.325C5.75517 16.3603 5.77078 16.3947 5.78827 16.4281C5.79246 16.4363 5.79636 16.4446 5.8007 16.4525C5.82223 16.4917 5.84579 16.5294 5.87181 16.5655C5.87672 16.5723 5.88221 16.5787 5.88727 16.5853C5.90938 16.6147 5.93294 16.6427 5.95795 16.6697C5.96647 16.679 5.975 16.6881 5.98382 16.6971C6.01504 16.7286 6.04741 16.7588 6.08224 16.7865C6.08253 16.7867 6.08268 16.787 6.08282 16.7871C6.11924 16.816 6.15812 16.8419 6.1983 16.866C6.20206 16.8683 6.20524 16.8711 6.209 16.8734C8.05538 17.9578 9.87271 19.2665 11.6304 20.5319C14.1255 22.3284 16.7057 24.1862 19.5125 25.5256C21.3323 26.3939 23.2913 26.8284 25.216 26.8284C26.8279 26.8284 28.4155 26.5226 29.877 25.9124C31.4177 27.1414 32.6566 28.2733 33.519 29.1084L33.5024 34.3066C30.1365 34.8467 27.2027 36.9427 25.6103 39.9957C25.2209 39.9543 24.8328 39.9347 24.4455 39.9345C20.2087 39.9426 16.3662 42.4421 14.6117 46.2415C14.3444 46.2138 14.0708 46.2025 13.8092 46.2007C11.7385 46.2046 9.80738 47.0178 8.37002 48.458L7.17576 47.6588C5.07848 46.249 2.21633 46.8023 0.795156 48.8912C-0.504033 50.8003 -0.181439 53.3964 1.54527 54.9297C1.55626 54.9395 1.56753 54.9489 1.57895 54.9583L16.2513 66.9749C17.7728 68.2159 19.6018 69.0353 21.5407 69.3449C21.5462 69.3458 21.5518 69.3467 21.5573 69.3474L44.264 72.6206L44.2572 72.6197C44.6123 72.6759 44.9709 72.7038 45.3321 72.7038C45.9997 72.7038 46.6755 72.6081 47.3519 72.4172C47.3662 72.4132 47.3804 72.4088 47.3945 72.4042L62.8211 67.3696V69.2926C62.8211 70.6282 63.9076 71.7147 65.2431 71.7147H71.5779C72.9134 71.7147 73.9999 70.6282 73.9999 69.2926V41.3553C73.9998 40.0197 72.9132 38.9333 71.5778 38.9333ZM44.9948 7.5799C50.2782 4.27188 57.2763 4.03774 63.0089 5.03356C53.7717 7.52585 45.7567 11.8764 39.1129 18.0093C38.6501 13.8614 41.5064 9.76405 44.9948 7.5799ZM20.465 23.5301C17.8371 22.276 15.3387 20.4773 12.9226 18.7375C12.398 18.3599 11.8671 17.9788 11.3318 17.5997C17.3785 18.6624 22.8689 20.9061 27.7207 24.2982C25.3926 24.8805 22.7589 24.6246 20.465 23.5301ZM11.6075 15.4029C15.537 14.4168 20.1661 14.2097 23.9703 15.9985C26.5666 17.2194 28.9006 19.7406 29.1477 22.5981C23.9601 18.9347 18.0829 16.5246 11.6075 15.4029ZM13.8133 48.4126C13.8168 48.4126 13.8204 48.4126 13.8239 48.4126C14.2341 48.4126 14.648 48.4596 15.0543 48.5521C15.5986 48.6755 16.1503 48.3749 16.34 47.8497C17.5696 44.4453 20.8287 42.1533 24.4498 42.1464C24.4556 42.1464 24.4612 42.1464 24.4672 42.1464C24.9927 42.1464 25.5276 42.1964 26.0573 42.2949C26.5671 42.3905 27.0745 42.1179 27.2773 41.6405C28.6336 38.4511 31.7485 36.3861 35.2129 36.3794C35.2185 36.3794 35.224 36.3794 35.2298 36.3794C38.6874 36.3794 41.8023 38.4312 43.1686 41.6099C43.3734 42.0864 43.8822 42.3559 44.3912 42.2597C44.9261 42.1579 45.4668 42.1057 45.9982 42.1047C46.0039 42.1047 46.0096 42.1047 46.0154 42.1047C48.5696 42.1047 50.9311 43.2049 52.5592 45.1039C52.5521 45.1068 52.5452 45.1101 52.5383 45.113C52.3388 45.1955 52.1408 45.2817 51.9435 45.3701C51.9074 45.3863 51.871 45.4013 51.835 45.4177C51.6422 45.5053 51.4511 45.5966 51.2607 45.6898C51.2211 45.7092 51.181 45.7273 51.1415 45.7469C50.9598 45.8371 50.7799 45.9313 50.6004 46.0266C50.5543 46.051 50.5073 46.0741 50.4613 46.0989C50.2393 46.2188 50.0191 46.3424 49.8008 46.47C49.2351 46.8008 48.657 47.1026 48.0675 47.3749C46.2989 48.1918 44.4272 48.7436 42.4812 49.0203L30.6635 50.3809C30.654 50.382 30.6446 50.3832 30.635 50.3846C27.5467 50.8215 25.1742 53.2945 24.8653 56.3984L24.7861 57.1949L21.6842 57.3689L10.2562 49.7208C11.24 48.8816 12.4871 48.4151 13.8133 48.4126ZM46.7304 70.2951C46.0052 70.497 45.2897 70.5442 44.6093 70.4369L21.8812 67.1602C20.33 66.911 18.8666 66.2546 17.6508 65.2629L2.99882 53.2631C2.11371 52.4639 1.95155 51.1232 2.62347 50.1356C3.3626 49.0493 4.85142 48.7617 5.94393 49.4959L20.7618 59.4126C20.8097 59.4446 20.8598 59.4722 20.9116 59.4962C20.929 59.5042 20.9473 59.5096 20.9652 59.5168C21.0002 59.5308 21.0351 59.5449 21.0713 59.5553C21.0932 59.5616 21.1158 59.5654 21.138 59.5703C21.1713 59.5777 21.2042 59.5849 21.2381 59.5892C21.262 59.5923 21.2862 59.5931 21.3105 59.5946C21.3326 59.5959 21.3544 59.5995 21.3767 59.5995C21.3972 59.5995 21.4178 59.5989 21.4387 59.5978L25.8547 59.35C25.8587 59.3499 25.8626 59.349 25.8667 59.3489C25.871 59.3486 25.8753 59.3487 25.8797 59.3484L28.8681 59.1129C29.4769 59.0649 29.9316 58.5324 29.8836 57.9237C29.8355 57.3146 29.3013 56.8599 28.6943 56.9082L27.0239 57.0398L27.066 56.6174C27.2731 54.5353 28.8615 52.8755 30.9312 52.5764L42.7486 51.2158C42.7581 51.2147 42.7675 51.2135 42.7771 51.2121C45.6628 50.8039 48.4015 49.8506 50.9173 48.379C51.0898 48.2781 51.2641 48.1808 51.4392 48.0853C51.4994 48.0525 51.5599 48.0207 51.6203 47.9886C51.7354 47.9273 51.851 47.8672 51.9672 47.8084C52.0408 47.7711 52.1145 47.7338 52.1885 47.6974C52.2953 47.6448 52.4028 47.594 52.5104 47.5434C52.5868 47.5075 52.6628 47.4706 52.7397 47.4356C52.9007 47.3623 53.0629 47.2915 53.2256 47.2226C53.3265 47.1799 53.4283 47.1392 53.5299 47.0981C53.6087 47.0663 53.6874 47.0344 53.7666 47.0036C53.8727 46.9623 53.9792 46.922 54.086 46.8825C54.1609 46.8547 54.2359 46.8279 54.3111 46.8011C54.4209 46.762 54.5308 46.7226 54.6413 46.6854C56.7041 45.9897 58.8749 45.6284 61.0669 45.6284H62.8209V65.0437H62.8211L46.7304 70.2951ZM71.7883 69.293C71.7883 69.4091 71.694 69.5035 71.5779 69.5035H65.2431C65.127 69.5035 65.0327 69.409 65.0327 69.293V41.3553C65.0327 41.2393 65.1272 41.1449 65.2431 41.1449H71.5779C71.694 41.1449 71.7883 41.2394 71.7883 41.3553V69.293Z" fill="#219653"/>
</svg>
