<svg width="75" height="74" viewBox="0 0 75 74" fill="none" xmlns="http://www.w3.org/2000/svg">
<g clip-path="url(#clip0_257_280)">
<path d="M60.933 30.8333H57.5191C57.133 29.5752 56.6302 28.3606 56.0171 27.2037L58.4308 24.7912C58.6627 24.5594 58.7921 24.2474 58.7921 23.9192C58.7921 23.591 58.6627 23.2779 58.4308 23.0472L51.4536 16.07C50.9712 15.5882 50.1919 15.5882 49.7096 16.07L47.2959 18.4825C46.139 17.8712 44.9244 17.3678 43.6663 16.9817V13.5666C43.6663 12.8843 43.1135 12.3333 42.433 12.3333H32.5663C31.8858 12.3333 31.333 12.8843 31.333 13.5666V16.9817C30.075 17.3666 28.8603 17.8712 27.7035 18.4825L25.2898 16.07C24.8074 15.5882 24.0282 15.5882 23.5458 16.07L16.5685 23.0472C16.3367 23.2791 16.2072 23.591 16.2072 23.9192C16.2072 24.2474 16.3367 24.5606 16.5685 24.7912L18.9822 27.2037C18.3692 28.3606 17.8663 29.5764 17.4803 30.8333H14.0663C13.3858 30.8333 12.833 31.3843 12.833 32.0666V41.9333C12.833 42.6156 13.3858 43.1666 14.0663 43.1666H17.4803C17.8663 44.4246 18.3692 45.6393 18.9822 46.7961L16.5685 49.2086C16.3367 49.4404 16.2072 49.7524 16.2072 50.0806C16.2072 50.4088 16.3367 50.722 16.5685 50.9526L23.5458 57.9299C24.0282 58.4116 24.8074 58.4116 25.2898 57.9299L27.7035 55.5174C28.8603 56.1286 30.075 56.6321 31.333 57.0181V60.4333C31.333 61.1156 31.8858 61.6666 32.5663 61.6666H42.433C43.1135 61.6666 43.6663 61.1156 43.6663 60.4333V57.0181C44.9244 56.6333 46.139 56.1286 47.2959 55.5174L49.7096 57.9299C50.1919 58.4116 50.9712 58.4116 51.4536 57.9299L58.4308 50.9526C58.6627 50.7208 58.7921 50.4088 58.7921 50.0806C58.7921 49.7524 58.6627 49.4392 58.4308 49.2086L56.0171 46.7961C56.6302 45.6393 57.133 44.4234 57.5191 43.1666H60.933C61.6135 43.1666 62.1663 42.6156 62.1663 41.9333V32.0666C62.1663 31.3843 61.6135 30.8333 60.933 30.8333ZM59.6997 40.6999H56.5868C56.0244 40.6999 55.5336 41.0811 55.3926 41.6249C54.9603 43.3009 54.2978 44.9004 53.4246 46.3806C53.1374 46.8666 53.215 47.4833 53.6131 47.8801L55.8148 50.0806L50.5816 55.3138L48.3817 53.1133C47.9842 52.7177 47.3688 52.6388 46.8828 52.9236C45.4031 53.7969 43.803 54.4587 42.1259 54.8917C41.5809 55.0326 41.1997 55.5246 41.1997 56.0871V59.1999H33.7997V56.0871C33.7997 55.5246 33.4185 55.0338 32.8747 54.8917C31.1975 54.4587 29.5974 53.7969 28.1178 52.9236C27.6318 52.6388 27.0151 52.7165 26.6195 53.1133L24.419 55.3138L19.1858 50.0806L21.3875 47.8801C21.7855 47.4833 21.8632 46.8666 21.5771 46.3806C20.7039 44.9004 20.0409 43.3009 19.6091 41.6249C19.467 41.0811 18.975 40.6999 18.4125 40.6999H15.2997V33.2999H18.4125C18.975 33.2999 19.4658 32.9187 19.6067 32.3749C20.0391 30.699 20.7015 29.0995 21.5747 27.6192C21.8608 27.1333 21.7831 26.5166 21.385 26.1197L19.1833 23.9192L24.4166 18.686L26.6165 20.8865C27.0151 21.2833 27.6318 21.361 28.1154 21.0762C29.595 20.203 31.1951 19.5411 32.8723 19.1082C33.4185 18.9672 33.7997 18.4752 33.7997 17.9128V14.7999H41.1997V17.9128C41.1997 18.4752 41.5809 18.966 42.1247 19.1082C43.8018 19.5411 45.4019 20.203 46.8816 21.0762C47.3663 21.3586 47.983 21.2821 48.3799 20.8865L50.5804 18.686L55.8136 23.9192L53.6119 26.1197C53.215 26.5166 53.1374 27.1333 53.4234 27.6192C54.2966 29.0995 54.9603 30.699 55.3914 32.3749C55.5324 32.9187 56.0244 33.2999 56.5868 33.2999H59.6997V40.6999Z" fill="white"/>
<path d="M37.5002 22.2C29.339 22.2 22.7002 28.8388 22.7002 37C22.7002 45.1612 29.339 51.8 37.5002 51.8C45.6614 51.8 52.3002 45.1612 52.3002 37C52.3002 28.8388 45.6614 22.2 37.5002 22.2ZM37.5002 49.3333C30.6994 49.3333 25.1669 43.8008 25.1669 37C25.1669 30.1992 30.6994 24.6666 37.5002 24.6666C44.301 24.6666 49.8335 30.1992 49.8335 37C49.8335 43.8008 44.301 49.3333 37.5002 49.3333Z" fill="white"/>
<path d="M69.5671 0C66.8463 0 64.6338 2.21253 64.6338 4.93333C64.6338 7.65413 66.8463 9.86667 69.5671 9.86667C72.2879 9.86667 74.5005 7.65413 74.5005 4.93333C74.5005 2.21253 72.2879 0 69.5671 0ZM69.5671 7.4C68.2067 7.4 67.1005 6.29373 67.1005 4.93333C67.1005 3.57293 68.2067 2.46667 69.5671 2.46667C70.9275 2.46667 72.0338 3.57293 72.0338 4.93333C72.0338 6.29373 70.9275 7.4 69.5671 7.4Z" fill="white"/>
<path d="M5.43333 0C2.71253 0 0.5 2.21253 0.5 4.93333C0.5 7.65413 2.71253 9.86667 5.43333 9.86667C8.15413 9.86667 10.3667 7.65413 10.3667 4.93333C10.3667 2.21253 8.15413 0 5.43333 0ZM5.43333 7.4C4.07293 7.4 2.96667 6.29373 2.96667 4.93333C2.96667 3.57293 4.07293 2.46667 5.43333 2.46667C6.79373 2.46667 7.9 3.57293 7.9 4.93333C7.9 6.29373 6.79373 7.4 5.43333 7.4Z" fill="white"/>
<path d="M69.5671 64.1333C66.8463 64.1333 64.6338 66.3458 64.6338 69.0666C64.6338 71.7874 66.8463 74 69.5671 74C72.2879 74 74.5005 71.7874 74.5005 69.0666C74.5005 66.3458 72.2879 64.1333 69.5671 64.1333ZM69.5671 71.5333C68.2067 71.5333 67.1005 70.427 67.1005 69.0666C67.1005 67.7062 68.2067 66.6 69.5671 66.6C70.9275 66.6 72.0338 67.7062 72.0338 69.0666C72.0338 70.427 70.9275 71.5333 69.5671 71.5333Z" fill="white"/>
<path d="M5.43333 64.1333C2.71253 64.1333 0.5 66.3458 0.5 69.0666C0.5 71.7874 2.71253 74 5.43333 74C8.15413 74 10.3667 71.7874 10.3667 69.0666C10.3667 66.3458 8.15413 64.1333 5.43333 64.1333ZM5.43333 71.5333C4.07293 71.5333 2.96667 70.427 2.96667 69.0666C2.96667 67.7062 4.07293 66.6 5.43333 66.6C6.79373 66.6 7.9 67.7062 7.9 69.0666C7.9 70.427 6.79373 71.5333 5.43333 71.5333Z" fill="white"/>
<path d="M64.6338 37H67.1005V39.4667H64.6338V37Z" fill="white"/>
<path d="M69.5664 37H72.0331V39.4667H69.5664V37Z" fill="white"/>
<path d="M69.5664 32.0667H72.0331V34.5333H69.5664V32.0667Z" fill="white"/>
<path d="M69.5664 27.1333H72.0331V29.6H69.5664V27.1333Z" fill="white"/>
<path d="M69.5664 22.2H72.0331V24.6666H69.5664V22.2Z" fill="white"/>
<path d="M69.5664 17.2666H72.0331V19.7333H69.5664V17.2666Z" fill="white"/>
<path d="M69.5664 12.3333H72.0331V14.7999H69.5664V12.3333Z" fill="white"/>
<path d="M12.833 2.46655H15.2997V4.93322H12.833V2.46655Z" fill="white"/>
<path d="M17.7666 2.46655H20.2333V4.93322H17.7666V2.46655Z" fill="white"/>
<path d="M22.7002 2.46655H25.1669V4.93322H22.7002V2.46655Z" fill="white"/>
<path d="M27.6338 2.46655H30.1005V4.93322H27.6338V2.46655Z" fill="white"/>
<path d="M32.5664 2.46655H35.0331V4.93322H32.5664V2.46655Z" fill="white"/>
<path d="M37.5 2.46655H39.9667V4.93322H37.5V2.46655Z" fill="white"/>
<path d="M37.5 7.3999H39.9667V9.86657H37.5V7.3999Z" fill="white"/>
<path d="M2.9668 59.2H5.43346V61.6666H2.9668V59.2Z" fill="white"/>
<path d="M2.9668 54.2666H5.43346V56.7333H2.9668V54.2666Z" fill="white"/>
<path d="M2.9668 49.3333H5.43346V51.7999H2.9668V49.3333Z" fill="white"/>
<path d="M2.9668 44.3999H5.43346V46.8666H2.9668V44.3999Z" fill="white"/>
<path d="M2.9668 39.4666H5.43346V41.9332H2.9668V39.4666Z" fill="white"/>
<path d="M2.9668 34.5334H5.43346V37.0001H2.9668V34.5334Z" fill="white"/>
<path d="M7.90039 34.5334H10.3671V37.0001H7.90039V34.5334Z" fill="white"/>
<path d="M35.0332 64.1333H37.4999V66.6H35.0332V64.1333Z" fill="white"/>
<path d="M35.0332 69.0667H37.4999V71.5333H35.0332V69.0667Z" fill="white"/>
<path d="M39.9668 69.0667H42.4335V71.5333H39.9668V69.0667Z" fill="white"/>
<path d="M44.9004 69.0667H47.3671V71.5333H44.9004V69.0667Z" fill="white"/>
<path d="M49.833 69.0667H52.2997V71.5333H49.833V69.0667Z" fill="white"/>
<path d="M54.7666 69.0667H57.2333V71.5333H54.7666V69.0667Z" fill="white"/>
<path d="M59.7002 69.0667H62.1669V71.5333H59.7002V69.0667Z" fill="white"/>
</g>
<defs>
<clipPath id="clip0_257_280">
<rect width="74" height="74" fill="white" transform="translate(0.5)"/>
</clipPath>
</defs>
</svg>
