<svg width="199" height="199" viewBox="0 0 199 199" fill="none" xmlns="http://www.w3.org/2000/svg">
<g filter="url(#filter0_d_257_407)">
<mask id="mask0_257_407" style="mask-type:alpha" maskUnits="userSpaceOnUse" x="21" y="21" width="157" height="157">
<path d="M36.054 53.9015L103.467 21.4476C110.687 21.8275 117.976 23.2271 125.144 25.7366C165.749 39.9505 187.143 84.3898 172.929 124.995C158.715 165.599 114.276 186.993 73.6712 172.779C33.0665 158.565 11.6725 114.126 25.8865 73.5214C28.396 66.3525 31.8476 59.7825 36.054 53.9015Z" fill="#EB5757"/>
</mask>
<g mask="url(#mask0_257_407)">
<g filter="url(#filter1_ii_257_407)">
<path d="M36.054 53.9015L103.467 21.4476C110.687 21.8275 117.976 23.2271 125.144 25.7366C165.749 39.9505 187.143 84.3898 172.929 124.995C158.715 165.599 114.276 186.993 73.6712 172.779C33.0665 158.565 11.6725 114.126 25.8865 73.5214C28.396 66.3525 31.8476 59.7825 36.054 53.9015Z" fill="#EB5757"/>
</g>
<path d="M71.9978 63.9565L68.4631 74.0541L70.0945 74.6252L68.0867 80.3609L65.5795 79.4833L66.8298 75.9113L59.1536 73.2242L57.9032 76.7961L55.3959 75.9185L57.4038 70.1827L58.3483 70.5134C59.0799 69.8185 59.8069 69.0448 60.5294 68.1925C61.2519 67.3402 61.9723 66.3651 62.6908 65.2672C63.4092 64.1693 64.1303 62.8988 64.8539 61.4557L71.9978 63.9565ZM68.6473 65.2125L66.1572 64.3409C65.7737 65.1062 65.3071 65.9067 64.7575 66.7425C64.2194 67.5822 63.6334 68.4116 62.9997 69.2308C62.37 70.0384 61.7297 70.7846 61.0788 71.4692L65.87 73.1464L68.6473 65.2125ZM78.2207 69.1806C79.5143 69.6335 80.4087 70.3642 80.9039 71.3729C81.403 72.3701 81.4141 73.5499 80.9372 74.9123L80.5043 76.1487L74.4595 74.0327C74.2299 74.762 74.2433 75.4028 74.4998 75.9552C74.7676 76.5117 75.2622 76.9161 75.9835 77.1686C76.5788 77.377 77.1426 77.5101 77.675 77.5679C78.2228 77.6183 78.8041 77.6098 79.4189 77.5423L78.7276 79.5172C78.1781 79.5818 77.6334 79.5775 77.0936 79.5042C76.5498 79.4423 75.9172 79.2852 75.196 79.0327C74.2572 78.7041 73.4873 78.2418 72.8863 77.6458C72.2892 77.0385 71.9069 76.3134 71.7392 75.4708C71.5755 74.6167 71.684 73.6459 72.0648 72.5583C72.4455 71.4706 72.9473 70.6246 73.5701 70.0201C74.2044 69.4197 74.9177 69.0525 75.71 68.9186C76.5022 68.7847 77.3391 68.872 78.2207 69.1806ZM77.6006 71.0069C77.0969 70.8306 76.6286 70.8466 76.1958 71.0549C75.7631 71.2633 75.3998 71.6952 75.1061 72.3506L78.6953 73.607C78.8802 73.042 78.89 72.5185 78.7245 72.0365C78.5706 71.5585 78.1959 71.2153 77.6006 71.0069ZM86.9156 72.4171L85.6171 76.1264C85.549 76.3211 85.4534 76.5575 85.3303 76.8357C85.2187 77.1179 85.0993 77.4038 84.9722 77.6935C84.8566 77.9871 84.7452 78.2501 84.6382 78.4825C84.5351 78.7035 84.4638 78.852 84.4243 78.9282L91.0543 73.8659L94.1282 74.9419L90.846 84.3183L88.3731 83.4526L89.6836 79.709C89.7878 79.4113 89.9174 79.0776 90.0726 78.7078C90.2277 78.338 90.3729 77.9968 90.508 77.6843C90.6586 77.3643 90.7696 77.1204 90.8412 76.9527L84.2344 82.0039L81.1605 80.9278L84.4427 71.5514L86.9156 72.4171ZM94.8368 70.6598C94.5712 71.2351 94.2208 71.7036 93.7858 72.0654C93.3547 72.4157 92.8031 72.6146 92.1311 72.6621C91.4591 72.7096 90.6307 72.561 89.6462 72.2163C88.6387 71.8636 87.8908 71.4669 87.4026 71.0261C86.9257 70.5893 86.6453 70.1056 86.5611 69.5749C86.481 69.0328 86.5263 68.4446 86.6969 67.8104L88.9809 68.6099C88.8063 69.2556 88.8145 69.7276 89.0057 70.0258C89.2083 70.3281 89.6073 70.5834 90.2026 70.7918C90.6949 70.9641 91.1337 70.9957 91.519 70.8863C91.9197 70.7696 92.2529 70.4236 92.5185 69.8483L94.8368 70.6598ZM97.2725 86.7607C95.8758 86.2718 94.9281 85.5095 94.4296 84.474C93.9425 83.4424 93.9915 82.0909 94.5766 80.4194C94.9774 79.2745 95.4986 78.4096 96.1404 77.8246C96.7821 77.2396 97.5065 76.8956 98.3137 76.7926C99.1323 76.6936 99.9938 76.8024 100.898 77.119C101.539 77.3434 102.073 77.6008 102.498 77.891C102.935 78.1853 103.3 78.4804 103.595 78.7764L102.148 80.4867C101.804 80.1862 101.472 79.9223 101.153 79.695C100.846 79.4717 100.52 79.3 100.177 79.1798C98.8488 78.7149 97.8542 79.4269 97.1929 81.316C96.8643 82.2547 96.7936 83.0075 96.9807 83.5742C97.1793 84.1449 97.5935 84.5405 98.2231 84.7609C98.7612 84.9493 99.2604 85.0469 99.7206 85.0538C100.185 85.0493 100.656 84.9892 101.133 84.8736L100.37 87.0545C99.8922 87.1701 99.418 87.2033 98.9469 87.1541C98.4832 87.1203 97.9251 86.9891 97.2725 86.7607ZM112.713 83.6065L109.639 82.5305L107.03 89.9835L104.471 89.0878L107.08 81.6348L104.006 80.5587L104.679 78.6353L113.386 81.6832L112.713 83.6065ZM122.568 87.654C122.391 88.1577 122.081 88.5309 121.636 88.7736C121.203 89.0203 120.659 89.087 120.005 88.9736L119.981 89.0423C120.605 89.3509 121.046 89.7622 121.303 90.2763C121.575 90.7829 121.613 91.3167 121.417 91.8777C121.229 92.4158 120.917 92.8465 120.483 93.1699C120.06 93.4973 119.503 93.675 118.812 93.703C118.121 93.7311 117.283 93.5727 116.298 93.2281L111.833 91.6651L115.116 82.2887L119.581 83.8517C120.313 84.1082 120.938 84.4168 121.454 84.7774C121.986 85.1306 122.354 85.5485 122.558 86.0311C122.777 86.5063 122.78 87.0472 122.568 87.654ZM119.903 86.9523C120.103 86.3799 119.751 85.9354 118.846 85.6188L117.043 84.9876L116.394 86.8422L117.905 87.3713C118.443 87.5596 118.876 87.6275 119.203 87.5748C119.545 87.5147 119.778 87.3072 119.903 86.9523ZM118.82 90.8145C118.949 90.4482 118.892 90.1327 118.65 89.8683C118.424 89.5964 118.031 89.3622 117.47 89.1658L115.787 88.5767L115.011 90.792L116.746 91.3992C117.227 91.5675 117.652 91.6199 118.021 91.5564C118.406 91.4854 118.672 91.2381 118.82 90.8145ZM124.576 85.6005L127.376 86.5803L127.299 92.4716C127.298 92.767 127.275 93.0543 127.228 93.3337C127.182 93.613 127.118 93.9055 127.037 94.2112L127.088 94.2293C127.227 93.9436 127.371 93.6792 127.52 93.4359C127.67 93.1926 127.836 92.9553 128.02 92.7241L131.6 88.0592L134.348 89.021L126.678 98.2108C125.971 99.0557 125.195 99.6004 124.352 99.8447C123.504 100.101 122.633 100.072 121.74 99.7596C121.443 99.6554 121.197 99.5501 121.003 99.4436C120.805 99.3485 120.632 99.2558 120.483 99.1654L121.193 97.139C121.299 97.2019 121.44 97.2769 121.615 97.3639C121.79 97.451 121.975 97.5285 122.17 97.5967C122.708 97.785 123.19 97.7673 123.615 97.5435C124.036 97.3311 124.407 97.0241 124.728 96.6222L125.045 96.2127L124.576 85.6005ZM139.617 90.6728C140.911 91.1256 141.805 91.8564 142.3 92.865C142.799 93.8623 142.81 95.0421 142.334 96.4044L141.901 97.6409L135.856 95.5248C135.626 96.2541 135.64 96.895 135.896 97.4474C136.164 98.0038 136.659 98.4083 137.38 98.6607C137.975 98.8691 138.539 99.0023 139.071 99.0601C139.619 99.1105 140.2 99.1019 140.815 99.0344L140.124 101.009C139.574 101.074 139.03 101.07 138.49 100.996C137.946 100.935 137.314 100.777 136.592 100.525C135.654 100.196 134.884 99.7339 134.283 99.138C133.686 98.5306 133.303 97.8056 133.136 96.963C132.972 96.1089 133.08 95.138 133.461 94.0504C133.842 92.9628 134.344 92.1168 134.966 91.5123C135.601 90.9118 136.314 90.5447 137.106 90.4107C137.899 90.2768 138.735 90.3642 139.617 90.6728ZM138.997 92.4991C138.493 92.3228 138.025 92.3388 137.592 92.5471C137.159 92.7555 136.796 93.1873 136.503 93.8428L140.092 95.0992C140.277 94.5342 140.286 94.0107 140.121 93.5287C139.967 93.0507 139.592 92.7075 138.997 92.4991ZM152.928 97.6841L149.854 96.6081L147.245 104.061L144.686 103.165L147.295 95.7124L144.221 94.6363L144.895 92.713L153.601 95.7608L152.928 97.6841ZM63.3036 101.357C61.9068 100.868 60.9592 100.106 60.4607 99.0704C59.9736 98.0389 60.0226 96.6873 60.6077 95.0158C61.0085 93.871 61.5297 93.0061 62.1715 92.4211C62.8132 91.8361 63.5376 91.4921 64.3448 91.3891C65.1634 91.2901 66.0249 91.3989 66.9293 91.7155C67.5704 91.9399 68.1036 92.1972 68.529 92.4875C68.9657 92.7818 69.3315 93.0769 69.6263 93.3728L68.1794 95.0832C67.8348 94.7827 67.503 94.5187 67.1842 94.2915C66.8768 94.0682 66.5514 93.8965 66.2079 93.7762C64.8799 93.3113 63.8853 94.0234 63.224 95.9124C62.8954 96.8512 62.8246 97.604 63.0118 98.1707C63.2104 98.7414 63.6245 99.137 64.2542 99.3574C64.7923 99.5458 65.2915 99.6434 65.7517 99.6503C66.2159 99.6457 66.6868 99.5856 67.1642 99.47L66.4007 101.651C65.9233 101.767 65.4491 101.8 64.9779 101.751C64.5143 101.717 63.9561 101.586 63.3036 101.357ZM74.1277 94.4281L72.8292 98.1374C72.7611 98.3321 72.6655 98.5685 72.5424 98.8467C72.4307 99.1289 72.3114 99.4148 72.1843 99.7044C72.0686 99.9981 71.9573 100.261 71.8502 100.494C71.7472 100.714 71.6759 100.863 71.6364 100.939L78.2663 95.8768L81.3403 96.9529L78.058 106.329L75.5851 105.464L76.8956 101.72C76.9998 101.422 77.1295 101.089 77.2847 100.719C77.4398 100.349 77.5849 100.008 77.72 99.6953C77.8706 99.3753 77.9817 99.1314 78.0532 98.9637L71.4465 104.015L68.3725 102.939L71.6548 93.5624L74.1277 94.4281ZM84.4846 108.772C83.0878 108.283 82.1402 107.521 81.6417 106.485C81.1546 105.453 81.2036 104.102 81.7887 102.43C82.1895 101.286 82.7107 100.421 83.3524 99.8356C83.9942 99.2506 84.7186 98.9066 85.5258 98.8036C86.3444 98.7046 87.2059 98.8134 88.1103 99.13C88.7514 99.3544 89.2846 99.6118 89.7099 99.902C90.1467 100.196 90.5125 100.491 90.8073 100.787L89.3603 102.498C89.0157 102.197 88.684 101.933 88.3652 101.706C88.0578 101.483 87.7324 101.311 87.3889 101.191C86.0609 100.726 85.0662 101.438 84.405 103.327C84.0764 104.266 84.0056 105.018 84.1928 105.585C84.3914 106.156 84.8055 106.552 85.4352 106.772C85.9733 106.96 86.4724 107.058 86.9327 107.065C87.3969 107.06 87.8678 107 88.3452 106.885L87.5817 109.066C87.1043 109.181 86.63 109.214 86.1589 109.165C85.6953 109.131 85.1371 109 84.4846 108.772ZM99.9246 105.618L96.8507 104.541L94.2417 111.994L91.683 111.099L94.2919 103.646L91.218 102.57L91.8913 100.646L100.598 103.694L99.9246 105.618ZM106.084 105.422C107.378 105.875 108.272 106.605 108.767 107.614C109.266 108.611 109.278 109.791 108.801 111.154L108.368 112.39L102.323 110.274C102.093 111.003 102.107 111.644 102.363 112.196C102.631 112.753 103.126 113.157 103.847 113.41C104.442 113.618 105.006 113.751 105.538 113.809C106.086 113.86 106.668 113.851 107.282 113.784L106.591 115.758C106.042 115.823 105.497 115.819 104.957 115.745C104.413 115.684 103.781 115.526 103.059 115.274C102.121 114.945 101.351 114.483 100.75 113.887C100.153 113.28 99.7703 112.555 99.6027 111.712C99.439 110.858 99.5475 109.887 99.9282 108.8C100.309 107.712 100.811 106.866 101.434 106.261C102.068 105.661 102.781 105.294 103.573 105.16C104.366 105.026 105.203 105.113 106.084 105.422ZM105.464 107.248C104.96 107.072 104.492 107.088 104.059 107.296C103.627 107.505 103.263 107.936 102.97 108.592L106.559 109.848C106.744 109.283 106.753 108.76 106.588 108.278C106.434 107.8 106.059 107.457 105.464 107.248ZM124.121 111.929L120.839 121.305L118.452 120.469L120.063 115.867C120.223 115.409 120.385 114.965 120.549 114.534C120.724 114.107 120.893 113.716 121.056 113.362L121.004 113.344L115.91 119.58L113.987 118.906L113.866 110.826L113.798 110.802C113.711 111.195 113.597 111.612 113.457 112.051C113.331 112.482 113.178 112.956 112.998 113.471L111.411 118.005L109.024 117.169L112.306 107.793L115.93 109.061L116.041 116.233L120.635 110.708L124.121 111.929ZM130.709 114.023C131.968 114.463 132.833 115.075 133.305 115.857C133.792 116.631 133.839 117.58 133.447 118.702L131.259 124.952L129.473 124.327L129.419 122.882L129.351 122.858C128.774 123.222 128.222 123.44 127.695 123.512C127.168 123.585 126.516 123.485 125.737 123.213C124.902 122.92 124.293 122.437 123.912 121.764C123.531 121.091 123.519 120.245 123.875 119.226C124.224 118.23 124.83 117.619 125.692 117.394C126.555 117.169 127.695 117.273 129.111 117.704L130.761 118.224L130.905 117.812C131.077 117.32 131.072 116.913 130.889 116.592C130.717 116.275 130.402 116.036 129.944 115.875C129.486 115.715 129.016 115.628 128.533 115.613C128.054 115.586 127.562 115.594 127.059 115.637L126.825 113.608C127.405 113.528 128.031 113.522 128.701 113.59C129.375 113.646 130.045 113.79 130.709 114.023ZM130.238 119.718L129.23 119.404C128.397 119.138 127.773 119.086 127.356 119.249C126.939 119.412 126.653 119.716 126.497 120.163C126.36 120.552 126.377 120.872 126.546 121.124C126.718 121.365 126.988 121.549 127.354 121.677C127.904 121.87 128.424 121.872 128.914 121.683C129.408 121.484 129.759 121.086 129.967 120.491L130.238 119.718ZM59.9657 126.676C58.569 126.187 57.6214 125.425 57.1228 124.389C56.6357 123.358 56.6848 122.006 57.2699 120.335C57.6706 119.19 58.1919 118.325 58.8336 117.74C59.4754 117.155 60.1998 116.811 61.0069 116.708C61.8255 116.609 62.687 116.718 63.5915 117.035C64.2326 117.259 64.7658 117.516 65.1911 117.807C65.6279 118.101 65.9937 118.396 66.2884 118.692L64.8415 120.402C64.4969 120.102 64.1652 119.838 63.8464 119.611C63.539 119.387 63.2136 119.216 62.8701 119.095C61.5421 118.63 60.5474 119.342 59.8862 121.231C59.5575 122.17 59.4868 122.923 59.674 123.49C59.8726 124.06 60.2867 124.456 60.9164 124.676C61.4545 124.865 61.9536 124.962 62.4139 124.969C62.8781 124.965 63.3489 124.905 63.8264 124.789L63.0629 126.97C62.5855 127.086 62.1112 127.119 61.6401 127.07C61.1764 127.036 60.6183 126.905 59.9657 126.676ZM74.4648 121.034L77.2812 122.019L71.9969 125.22L74.3252 131.51L71.423 130.494L69.2586 124.397L67.5935 129.154L65.0347 128.258L68.317 118.881L70.8757 119.777L69.2827 124.328L74.4648 121.034ZM81.4223 123.469L80.1238 127.178C80.0557 127.373 79.9601 127.609 79.837 127.888C79.7253 128.17 79.606 128.456 79.4789 128.745C79.3632 129.039 79.2519 129.302 79.1448 129.535C79.0418 129.755 78.9705 129.904 78.931 129.98L85.5609 124.918L88.6349 125.994L85.3526 135.37L82.8797 134.505L84.1902 130.761C84.2944 130.463 84.4241 130.13 84.5793 129.76C84.7344 129.39 84.8795 129.049 85.0146 128.736C85.1652 128.416 85.2763 128.172 85.3478 128.005L78.7411 133.056L75.6671 131.98L78.9494 122.603L81.4223 123.469ZM99.741 129.882L97.114 137.386L98.4879 137.867L96.6544 143.105L94.3532 142.299L95.5314 138.933L89.229 136.727L88.0508 140.093L85.7496 139.288L87.5831 134.05L88.373 134.326C89.0056 133.841 89.6053 133.248 90.172 132.546C90.7428 131.834 91.2723 131.055 91.7606 130.211C92.253 129.355 92.7035 128.472 93.1123 127.561L99.741 129.882ZM96.509 130.909L94.5856 130.236C94.0836 131.23 93.548 132.154 92.9789 133.009C92.4139 133.852 91.7716 134.604 91.052 135.264L94.5553 136.491L96.509 130.909ZM109.596 138.575C109.051 140.132 108.218 141.19 107.097 141.748C105.987 142.311 104.729 142.346 103.32 141.853C102.45 141.548 101.738 141.087 101.183 140.469C100.64 139.854 100.3 139.118 100.163 138.261C100.031 137.392 100.146 136.436 100.511 135.395C101.056 133.838 101.881 132.784 102.987 132.232C104.092 131.681 105.355 131.654 106.774 132.151C107.656 132.46 108.368 132.921 108.912 133.535C109.455 134.149 109.795 134.885 109.932 135.743C110.068 136.6 109.956 137.544 109.596 138.575ZM103.121 136.308C102.797 137.236 102.699 137.992 102.829 138.577C102.973 139.155 103.389 139.564 104.076 139.804C104.752 140.041 105.32 139.976 105.782 139.611C106.26 139.238 106.661 138.588 106.985 137.661C107.31 136.734 107.398 135.987 107.249 135.421C107.116 134.847 106.706 134.44 106.019 134.2C105.343 133.963 104.769 134.026 104.295 134.387C103.837 134.741 103.446 135.381 103.121 136.308ZM119.493 136.796L122.31 137.782L117.025 140.983L119.354 147.273L116.451 146.257L114.287 140.159L112.622 144.916L110.063 144.02L113.345 134.644L115.904 135.54L114.311 140.09L119.493 136.796Z" fill="white"/>
<g filter="url(#filter2_f_257_407)">
<path d="M102.739 20.9054C101.769 36.5436 53.4701 80.7676 27.5774 56.6433L102.739 20.9054Z" fill="#BC2626"/>
</g>
<path d="M103.467 21.4477C88.0542 42.9959 62.5099 55.2935 36.0538 53.9016L103.467 21.4477Z" fill="url(#paint0_linear_257_407)"/>
</g>
</g>
<defs>
<filter id="filter0_d_257_407" x="13.5311" y="19.1732" width="169.48" height="169.374" filterUnits="userSpaceOnUse" color-interpolation-filters="sRGB">
<feFlood flood-opacity="0" result="BackgroundImageFix"/>
<feColorMatrix in="SourceAlpha" type="matrix" values="0 0 0 0 0 0 0 0 0 0 0 0 0 0 0 0 0 0 127 0" result="hardAlpha"/>
<feOffset dx="-1.13717" dy="4.54866"/>
<feGaussianBlur stdDeviation="3.4115"/>
<feComposite in2="hardAlpha" operator="out"/>
<feColorMatrix type="matrix" values="0 0 0 0 0.533333 0 0 0 0 0.193333 0 0 0 0 0.193333 0 0 0 0.29 0"/>
<feBlend mode="normal" in2="BackgroundImageFix" result="effect1_dropShadow_257_407"/>
<feBlend mode="normal" in="SourceGraphic" in2="effect1_dropShadow_257_407" result="shape"/>
</filter>
<filter id="filter1_ii_257_407" x="20.354" y="20.3103" width="158.108" height="158.002" filterUnits="userSpaceOnUse" color-interpolation-filters="sRGB">
<feFlood flood-opacity="0" result="BackgroundImageFix"/>
<feBlend mode="normal" in="SourceGraphic" in2="BackgroundImageFix" result="shape"/>
<feColorMatrix in="SourceAlpha" type="matrix" values="0 0 0 0 0 0 0 0 0 0 0 0 0 0 0 0 0 0 127 0" result="hardAlpha"/>
<feOffset dx="-1.13717" dy="1.13717"/>
<feGaussianBlur stdDeviation="0.568583"/>
<feComposite in2="hardAlpha" operator="arithmetic" k2="-1" k3="1"/>
<feColorMatrix type="matrix" values="0 0 0 0 1 0 0 0 0 0.545833 0 0 0 0 0.545833 0 0 0 1 0"/>
<feBlend mode="normal" in2="shape" result="effect1_innerShadow_257_407"/>
<feColorMatrix in="SourceAlpha" type="matrix" values="0 0 0 0 0 0 0 0 0 0 0 0 0 0 0 0 0 0 127 0" result="hardAlpha"/>
<feOffset dx="1.13717" dy="-1.13717"/>
<feGaussianBlur stdDeviation="0.568583"/>
<feComposite in2="hardAlpha" operator="arithmetic" k2="-1" k3="1"/>
<feColorMatrix type="matrix" values="0 0 0 0 0.783333 0 0 0 0 0.342708 0 0 0 0 0.342708 0 0 0 1 0"/>
<feBlend mode="normal" in2="effect1_innerShadow_257_407" result="effect2_innerShadow_257_407"/>
</filter>
<filter id="filter2_f_257_407" x="18.4798" y="11.8082" width="93.3558" height="60.9874" filterUnits="userSpaceOnUse" color-interpolation-filters="sRGB">
<feFlood flood-opacity="0" result="BackgroundImageFix"/>
<feBlend mode="normal" in="SourceGraphic" in2="BackgroundImageFix" result="shape"/>
<feGaussianBlur stdDeviation="4.54866" result="effect1_foregroundBlur_257_407"/>
</filter>
<linearGradient id="paint0_linear_257_407" x1="78.1581" y1="53.2651" x2="70.5116" y2="35.528" gradientUnits="userSpaceOnUse">
<stop stop-color="#D9D9D9"/>
<stop offset="0.505704" stop-color="white"/>
<stop offset="0.802083" stop-color="#D9D9D9"/>
<stop offset="1" stop-color="#BEBEBE"/>
</linearGradient>
</defs>
</svg>
