<svg width="74" height="74" viewBox="0 0 74 74" fill="none" xmlns="http://www.w3.org/2000/svg">
<path d="M18.7575 14.2575C19.1675 13.8474 19.8324 13.8474 20.2424 14.2575L26.25 20.2651L32.2576 14.2575C32.6676 13.8474 33.3325 13.8474 33.7425 14.2575C34.1526 14.6675 34.1526 15.3324 33.7425 15.7424L27.7349 21.75L33.7424 27.7575C34.1525 28.1675 34.1525 28.8324 33.7424 29.2424C33.3324 29.6525 32.6675 29.6525 32.2575 29.2424L26.25 23.2349L20.2425 29.2424C19.8325 29.6525 19.1676 29.6525 18.7576 29.2424C18.3475 28.8324 18.3475 28.1675 18.7576 27.7575L24.7651 21.75L18.7575 15.7424C18.3474 15.3324 18.3474 14.6675 18.7575 14.2575Z" fill="white"/>
<path d="M43.7424 43.2575C43.3324 42.8474 42.6675 42.8474 42.2575 43.2575C41.8474 43.6675 41.8474 44.3324 42.2575 44.7424L48.2651 50.75L42.2576 56.7575C41.8475 57.1675 41.8475 57.8324 42.2576 58.2424C42.6676 58.6525 43.3325 58.6525 43.7425 58.2424L49.75 52.2349L55.7575 58.2424C56.1675 58.6525 56.8324 58.6525 57.2424 58.2424C57.6525 57.8324 57.6525 57.1675 57.2424 56.7575L51.2349 50.75L57.2425 44.7424C57.6526 44.3324 57.6526 43.6675 57.2425 43.2575C56.8325 42.8474 56.1676 42.8474 55.7576 43.2575L49.75 49.2651L43.7424 43.2575Z" fill="white"/>
<path fill-rule="evenodd" clip-rule="evenodd" d="M48.7575 13.7575C49.1675 13.3474 49.8324 13.3474 50.2424 13.7575L57.2424 20.7575L55.7575 22.2424L50.5499 17.0349V33C50.5499 35.2367 48.7367 37.0499 46.5 37.0499H29.5C28.423 37.0499 27.55 37.923 27.55 39V43.0642C31.749 43.5815 35 47.1611 35 51.5C35 56.1944 31.1944 60 26.5 60C21.8056 60 18 56.1944 18 51.5C18 47.1611 21.251 43.5815 25.45 43.0642V39C25.45 36.7632 27.2632 34.95 29.5 34.95H46.5C47.5769 34.95 48.45 34.0769 48.45 33V17.0349L43.2424 22.2424L41.7575 20.7575L48.7575 13.7575ZM32.9 51.5C32.9 55.0346 30.0346 57.9 26.5 57.9C22.9654 57.9 20.1 55.0346 20.1 51.5C20.1 47.9654 22.9654 45.1 26.5 45.1C30.0346 45.1 32.9 47.9654 32.9 51.5Z" fill="white"/>
<path fill-rule="evenodd" clip-rule="evenodd" d="M6 0C4.34315 0 3 1.34315 3 3V69C3 70.6569 4.34315 72 6 72H66C67.6569 72 69 70.6569 69 69V3C69 1.34315 67.6569 0 66 0H6ZM66 2.1H6C5.50294 2.1 5.1 2.50294 5.1 3V69C5.1 69.4971 5.50294 69.9 6 69.9H66C66.4971 69.9 66.9 69.4971 66.9 69V3C66.9 2.50294 66.4971 2.1 66 2.1Z" fill="white"/>
</svg>
