<svg width="260" height="260" viewBox="0 0 260 260" fill="none" xmlns="http://www.w3.org/2000/svg">
<circle cx="130" cy="130" r="126.5" fill="white" stroke="#5BB448" stroke-width="7"/>
<path d="M83.8996 49.9451L80.1636 56H77.0717L81.4089 49.2794C80.9509 49.0934 80.5 48.8357 80.0562 48.5065C79.6125 48.1772 79.2475 47.7263 78.9612 47.1538C78.6892 46.5812 78.5532 45.8655 78.5532 45.0066C78.5532 43.6038 79.0471 42.5303 80.0348 41.7859C81.0368 41.0416 82.4682 40.6694 84.329 40.6694H89.0527V56H86.3044V49.9451H83.8996ZM84.4149 42.9454C83.7565 42.9454 83.1982 43.0241 82.7402 43.1816C82.2964 43.3247 81.9529 43.5609 81.7095 43.8901C81.4662 44.2194 81.3445 44.6559 81.3445 45.1999C81.3445 45.9728 81.6022 46.5812 82.1175 47.0249C82.6471 47.4544 83.4416 47.6691 84.5008 47.6691H86.3044V42.9454H84.4149ZM102.736 47.3685C102.736 48.0269 102.528 48.5709 102.113 49.0003C101.712 49.4297 101.14 49.7089 100.396 49.8377V49.9236C101.183 50.0238 101.827 50.2958 102.328 50.7395C102.843 51.1689 103.101 51.7701 103.101 52.5431C103.101 53.0441 103.001 53.5093 102.8 53.9387C102.614 54.3539 102.321 54.7189 101.92 55.0338C101.534 55.3344 101.025 55.5706 100.396 55.7423C99.7657 55.9141 99.007 56 98.1196 56H92.7732V44.3625H98.0981C98.9856 44.3625 99.7729 44.4555 100.46 44.6416C101.161 44.8277 101.712 45.1426 102.113 45.5864C102.528 46.0158 102.736 46.6098 102.736 47.3685ZM100.288 52.4357C100.288 51.9061 100.081 51.5268 99.6655 51.2978C99.2647 51.0544 98.6563 50.9327 97.8404 50.9327H95.4786V54.0461H97.9048C98.6349 54.0461 99.2146 53.9244 99.644 53.6811C100.073 53.4377 100.288 53.0226 100.288 52.4357ZM99.9876 47.6047C99.9876 47.1752 99.823 46.8603 99.4937 46.6599C99.1645 46.4595 98.6635 46.3593 97.9907 46.3593H95.4786V48.9788H97.6257C98.3987 48.9788 98.9856 48.8715 99.3864 48.6568C99.7872 48.4421 99.9876 48.0914 99.9876 47.6047ZM115.691 56H112.986V46.4452H109.872C109.729 48.2059 109.55 49.7017 109.336 50.9327C109.121 52.1638 108.856 53.1729 108.541 53.9602C108.226 54.7332 107.833 55.2986 107.36 55.6565C106.902 56.0143 106.344 56.1932 105.686 56.1932C105.385 56.1932 105.106 56.1718 104.848 56.1288C104.591 56.0859 104.369 56.0143 104.183 55.9141V53.7884C104.311 53.8314 104.447 53.8743 104.591 53.9173C104.734 53.9459 104.884 53.9602 105.041 53.9602C105.285 53.9602 105.507 53.8672 105.707 53.6811C105.922 53.4807 106.115 53.1586 106.287 52.7149C106.473 52.2568 106.645 51.6556 106.802 50.9113C106.96 50.1669 107.096 49.258 107.21 48.1844C107.339 47.0965 107.453 45.8225 107.554 44.3625H115.691V56ZM120.546 56H117.562L120.761 51.2978C120.346 51.1403 119.952 50.9256 119.58 50.6536C119.208 50.3673 118.907 50.0023 118.678 49.5586C118.449 49.1005 118.335 48.5494 118.335 47.9053C118.335 46.7601 118.75 45.887 119.58 45.2858C120.41 44.6702 121.491 44.3625 122.822 44.3625H128.169V56H125.463V51.5554H123.295L120.546 56ZM120.976 47.9267C120.976 48.4707 121.183 48.893 121.598 49.1936C122.028 49.4798 122.6 49.623 123.316 49.623H125.463V46.3593H122.93C122.243 46.3593 121.742 46.5096 121.427 46.8102C121.126 47.1108 120.976 47.483 120.976 47.9267ZM136.308 44.1478C137.353 44.1478 138.248 44.3625 138.992 44.7919C139.751 45.207 140.337 45.8082 140.753 46.5955C141.168 47.3685 141.375 48.3132 141.375 49.4297V50.8039H133.688C133.717 51.8632 134.011 52.6862 134.569 53.2731C135.127 53.8457 135.9 54.132 136.888 54.132C137.646 54.132 138.319 54.0604 138.906 53.9173C139.507 53.7598 140.123 53.5379 140.753 53.2517V55.4203C140.18 55.6922 139.586 55.8926 138.97 56.0215C138.355 56.1503 137.618 56.2147 136.759 56.2147C135.628 56.2147 134.619 56 133.731 55.5706C132.858 55.1268 132.171 54.4612 131.67 53.5737C131.183 52.6862 130.94 51.584 130.94 50.2671C130.94 48.9359 131.162 47.8194 131.606 46.9176C132.064 46.0015 132.694 45.3144 133.495 44.8563C134.297 44.384 135.234 44.1478 136.308 44.1478ZM136.308 46.1446C135.592 46.1446 135.005 46.3808 134.547 46.8532C134.104 47.3112 133.839 47.9983 133.753 48.9144H138.756C138.756 48.3705 138.663 47.891 138.477 47.4758C138.305 47.0607 138.04 46.7387 137.682 46.5096C137.324 46.2663 136.866 46.1446 136.308 46.1446ZM153.143 46.4452H149.321V56H146.637V46.4452H142.836V44.3625H153.143V46.4452ZM159.856 56.2147C158.754 56.2147 157.794 56.0072 156.979 55.592C156.177 55.1626 155.554 54.5113 155.111 53.6381C154.681 52.7507 154.466 51.6198 154.466 50.2457C154.466 48.8142 154.703 47.6548 155.175 46.7673C155.662 45.8655 156.327 45.207 157.172 44.7919C158.016 44.3625 158.983 44.1478 160.07 44.1478C160.8 44.1478 161.452 44.2193 162.024 44.3625C162.597 44.5056 163.084 44.6774 163.484 44.8778L162.69 47.0035C162.246 46.8317 161.802 46.6886 161.359 46.574C160.915 46.4452 160.486 46.3808 160.07 46.3808C159.426 46.3808 158.89 46.5239 158.46 46.8102C158.045 47.0965 157.737 47.5259 157.537 48.0985C157.336 48.6568 157.236 49.3653 157.236 50.2242C157.236 51.0544 157.336 51.7487 157.537 52.3069C157.752 52.8652 158.066 53.2874 158.482 53.5737C158.897 53.8457 159.412 53.9817 160.028 53.9817C160.686 53.9817 161.266 53.903 161.767 53.7455C162.268 53.588 162.74 53.3733 163.184 53.1014V55.4417C162.74 55.7137 162.261 55.907 161.745 56.0215C161.244 56.1503 160.614 56.2147 159.856 56.2147ZM167.284 56H164.3L167.499 51.2978C167.084 51.1403 166.69 50.9256 166.318 50.6536C165.946 50.3673 165.645 50.0023 165.416 49.5586C165.187 49.1005 165.073 48.5494 165.073 47.9053C165.073 46.7601 165.488 45.887 166.318 45.2858C167.148 44.6702 168.229 44.3625 169.56 44.3625H174.907V56H172.201V51.5554H170.033L167.284 56ZM167.714 47.9267C167.714 48.4707 167.921 48.893 168.336 49.1936C168.766 49.4798 169.338 49.623 170.054 49.623H172.201V46.3593H169.668C168.981 46.3593 168.48 46.5096 168.165 46.8102C167.864 47.1108 167.714 47.483 167.714 47.9267ZM61.1761 71.3625V73.4452H56.1947V83H53.4893V71.3625H61.1761ZM67.8574 71.1478C68.9023 71.1478 69.7969 71.3625 70.5413 71.7919C71.2999 72.207 71.8868 72.8082 72.3019 73.5955C72.7171 74.3685 72.9246 75.3132 72.9246 76.4297V77.8039H65.2378C65.2665 78.8632 65.5599 79.6862 66.1182 80.2731C66.6764 80.8457 67.4494 81.132 68.4371 81.132C69.1957 81.132 69.8685 81.0604 70.4554 80.9173C71.0566 80.7598 71.6721 80.5379 72.3019 80.2517V82.4203C71.7294 82.6922 71.1353 82.8926 70.5198 83.0215C69.9043 83.1503 69.1671 83.2147 68.3083 83.2147C67.1774 83.2147 66.1683 83 65.2808 82.5706C64.4076 82.1268 63.7205 81.4612 63.2195 80.5737C62.7328 79.6862 62.4895 78.584 62.4895 77.2671C62.4895 75.9359 62.7114 74.8194 63.1551 73.9176C63.6132 73.0015 64.243 72.3144 65.0446 71.8563C65.8462 71.384 66.7838 71.1478 67.8574 71.1478ZM67.8574 73.1446C67.1416 73.1446 66.5548 73.3808 66.0967 73.8532C65.653 74.3112 65.3881 74.9983 65.3023 75.9144H70.3051C70.3051 75.3705 70.2121 74.891 70.026 74.4758C69.8542 74.0607 69.5894 73.7387 69.2315 73.5096C68.8737 73.2663 68.4156 73.1446 67.8574 73.1446ZM78.3581 71.3625V75.9788H83.4897V71.3625H86.1951V83H83.4897V78.0616H78.3581V83H75.6527V71.3625H78.3581ZM94.3611 71.1478C95.4061 71.1478 96.3007 71.3625 97.0451 71.7919C97.8037 72.207 98.3906 72.8082 98.8057 73.5955C99.2208 74.3685 99.4284 75.3132 99.4284 76.4297V77.8039H91.7416C91.7703 78.8632 92.0637 79.6862 92.6219 80.2731C93.1802 80.8457 93.9532 81.132 94.9409 81.132C95.6995 81.132 96.3723 81.0604 96.9592 80.9173C97.5604 80.7598 98.1759 80.5379 98.8057 80.2517V82.4203C98.2331 82.6922 97.6391 82.8926 97.0236 83.0215C96.4081 83.1503 95.6709 83.2147 94.812 83.2147C93.6812 83.2147 92.672 83 91.7846 82.5706C90.9114 82.1268 90.2243 81.4612 89.7233 80.5737C89.2366 79.6862 88.9933 78.584 88.9933 77.2671C88.9933 75.9359 89.2152 74.8194 89.6589 73.9176C90.117 73.0015 90.7468 72.3144 91.5484 71.8563C92.35 71.384 93.2876 71.1478 94.3611 71.1478ZM94.3611 73.1446C93.6454 73.1446 93.0585 73.3808 92.6005 73.8532C92.1567 74.3112 91.8919 74.9983 91.806 75.9144H96.8089C96.8089 75.3705 96.7158 74.891 96.5297 74.4758C96.358 74.0607 96.0932 73.7387 95.7353 73.5096C95.3774 73.2663 94.9194 73.1446 94.3611 73.1446ZM108.276 71.1478C109.636 71.1478 110.731 71.6559 111.561 72.6722C112.391 73.6742 112.806 75.1701 112.806 77.1598C112.806 78.4767 112.613 79.586 112.227 80.4878C111.84 81.3896 111.303 82.0696 110.616 82.5276C109.929 82.9857 109.127 83.2147 108.211 83.2147C107.653 83.2147 107.159 83.1431 106.73 83C106.3 82.8425 105.935 82.6493 105.635 82.4203C105.334 82.1769 105.077 81.9193 104.862 81.6473H104.69C104.747 81.905 104.79 82.1984 104.819 82.5276C104.848 82.8425 104.862 83.1431 104.862 83.4294V88.1531H102.156V71.3625H104.347L104.733 72.9084H104.862C105.077 72.5792 105.334 72.2858 105.635 72.0281C105.95 71.7561 106.322 71.5414 106.751 71.384C107.195 71.2265 107.703 71.1478 108.276 71.1478ZM107.503 73.3379C106.873 73.3379 106.365 73.4667 105.978 73.7243C105.592 73.9677 105.313 74.347 105.141 74.8623C104.969 75.3776 104.876 76.0218 104.862 76.7948V77.1383C104.862 77.9685 104.941 78.6699 105.098 79.2425C105.27 79.8151 105.549 80.2517 105.935 80.5523C106.336 80.8529 106.873 81.0032 107.546 81.0032C108.118 81.0032 108.584 80.8457 108.941 80.5308C109.314 80.2159 109.586 79.7721 109.757 79.1996C109.943 78.6127 110.036 77.9184 110.036 77.1168C110.036 75.9144 109.829 74.984 109.414 74.3255C109.013 73.6671 108.376 73.3379 107.503 73.3379ZM120.235 71.1478C121.738 71.1478 122.876 71.477 123.649 72.1355C124.436 72.7796 124.83 73.7959 124.83 75.1844V83H122.919L122.382 81.3896H122.296C121.967 81.8048 121.623 82.1555 121.265 82.4417C120.922 82.7137 120.521 82.907 120.063 83.0215C119.619 83.1503 119.075 83.2147 118.431 83.2147C117.744 83.2147 117.122 83.0859 116.563 82.8282C116.019 82.5706 115.59 82.1769 115.275 81.6473C114.96 81.1034 114.803 80.4234 114.803 79.6075C114.803 78.4051 115.239 77.5033 116.112 76.9021C117 76.2866 118.338 75.9502 120.128 75.893L122.146 75.8285V75.2488C122.146 74.5045 121.967 73.9748 121.609 73.6599C121.251 73.345 120.75 73.1876 120.106 73.1876C119.519 73.1876 118.954 73.2734 118.41 73.4452C117.866 73.617 117.336 73.8174 116.821 74.0464L115.962 72.1569C116.535 71.8563 117.186 71.613 117.916 71.4269C118.66 71.2408 119.433 71.1478 120.235 71.1478ZM120.729 77.5463C119.541 77.5892 118.718 77.7968 118.259 78.1689C117.801 78.5268 117.572 79.0135 117.572 79.629C117.572 80.1729 117.737 80.5666 118.066 80.8099C118.395 81.0533 118.818 81.1749 119.333 81.1749C120.12 81.1749 120.786 80.9531 121.33 80.5093C121.874 80.0513 122.146 79.3785 122.146 78.491V77.5033L120.729 77.5463ZM138.054 83H135.348V73.4452H132.235C132.092 75.2059 131.913 76.7017 131.698 77.9327C131.484 79.1638 131.219 80.1729 130.904 80.9602C130.589 81.7332 130.195 82.2986 129.723 82.6565C129.265 83.0143 128.707 83.1932 128.048 83.1932C127.748 83.1932 127.468 83.1718 127.211 83.1288C126.953 83.0859 126.731 83.0143 126.545 82.9141V80.7884C126.674 80.8314 126.81 80.8743 126.953 80.9173C127.096 80.9459 127.247 80.9602 127.404 80.9602C127.647 80.9602 127.869 80.8672 128.07 80.6811C128.284 80.4807 128.478 80.1586 128.649 79.7149C128.835 79.2568 129.007 78.6556 129.165 77.9113C129.322 77.1669 129.458 76.258 129.573 75.1844C129.701 74.0965 129.816 72.8225 129.916 71.3625H138.054V83ZM146.924 75.9574C148.055 75.9574 148.985 76.0862 149.715 76.3439C150.46 76.5872 151.011 76.9594 151.369 77.4604C151.741 77.9614 151.927 78.5912 151.927 79.3499C151.927 80.0942 151.755 80.7383 151.412 81.2823C151.068 81.8262 150.531 82.2485 149.801 82.5491C149.085 82.8497 148.141 83 146.967 83H141.535V71.3625H144.24V75.9574H146.924ZM149.221 79.4143C149.221 78.856 149.014 78.4695 148.599 78.2548C148.184 78.0401 147.582 77.9327 146.795 77.9327H144.24V81.0461H146.838C147.54 81.0461 148.112 80.9244 148.556 80.6811C149 80.4234 149.221 80.0012 149.221 79.4143ZM157.261 71.3625V75.9788H162.393V71.3625H165.098V83H162.393V78.0616H157.261V83H154.556V71.3625H157.261ZM168.584 83V71.3625H171.289V75.9574H173.372C174.503 75.9574 175.426 76.0862 176.142 76.3439C176.872 76.5872 177.408 76.9594 177.752 77.4604C178.11 77.9614 178.289 78.5912 178.289 79.3499C178.289 80.0942 178.124 80.7383 177.795 81.2823C177.466 81.8262 176.943 82.2485 176.227 82.5491C175.512 82.8497 174.574 83 173.415 83H168.584ZM173.243 81.0461C173.93 81.0461 174.495 80.9244 174.939 80.6811C175.383 80.4234 175.605 80.0012 175.605 79.4143C175.605 78.856 175.397 78.4695 174.982 78.2548C174.581 78.0401 173.994 77.9327 173.221 77.9327H171.289V81.0461H173.243ZM180.071 83V71.3625H182.776V83H180.071ZM200.109 71.3625V83H197.618V76.6445C197.618 76.1721 197.625 75.7069 197.64 75.2488C197.668 74.7908 197.697 74.3542 197.726 73.9391H197.661L194.226 83H192.143L188.708 73.9391H188.643C188.686 74.3542 188.715 74.7908 188.729 75.2488C188.743 75.7069 188.75 76.2007 188.75 76.7303V83H186.26V71.3625H190.017L193.217 79.8008L196.437 71.3625H200.109ZM80.947 98.3625V110H78.2416V100.467H73.3676V110H70.6622V98.3625H80.947ZM89.0552 98.1478C90.5582 98.1478 91.6962 98.477 92.4691 99.1355C93.2564 99.7796 93.6501 100.796 93.6501 102.184V110H91.7391L91.2023 108.39H91.1164C90.7872 108.805 90.4437 109.155 90.0858 109.442C89.7423 109.714 89.3415 109.907 88.8834 110.021C88.4397 110.15 87.8957 110.215 87.2516 110.215C86.5645 110.215 85.9418 110.086 85.3836 109.828C84.8396 109.571 84.4102 109.177 84.0953 108.647C83.7804 108.103 83.6229 107.423 83.6229 106.608C83.6229 105.405 84.0595 104.503 84.9327 103.902C85.8202 103.287 87.1585 102.95 88.9478 102.893L90.9661 102.829V102.249C90.9661 101.504 90.7872 100.975 90.4294 100.66C90.0715 100.345 89.5705 100.188 88.9264 100.188C88.3395 100.188 87.7741 100.273 87.2301 100.445C86.6862 100.617 86.1565 100.817 85.6412 101.046L84.7824 99.1569C85.3549 98.8563 86.0062 98.613 86.7363 98.4269C87.4806 98.2408 88.2536 98.1478 89.0552 98.1478ZM89.549 104.546C88.3609 104.589 87.5379 104.797 87.0798 105.169C86.6218 105.527 86.3927 106.013 86.3927 106.629C86.3927 107.173 86.5573 107.567 86.8866 107.81C87.2158 108.053 87.6381 108.175 88.1534 108.175C88.9407 108.175 89.6063 107.953 90.1502 107.509C90.6942 107.051 90.9661 106.378 90.9661 105.491V104.503L89.549 104.546ZM103.16 98.1478C104.519 98.1478 105.614 98.6559 106.445 99.6722C107.275 100.674 107.69 102.17 107.69 104.16C107.69 105.477 107.497 106.586 107.11 107.488C106.724 108.39 106.187 109.07 105.5 109.528C104.813 109.986 104.011 110.215 103.095 110.215C102.537 110.215 102.043 110.143 101.614 110C101.184 109.843 100.819 109.649 100.519 109.42C100.218 109.177 99.9603 108.919 99.7456 108.647H99.5738C99.6311 108.905 99.674 109.198 99.7027 109.528C99.7313 109.843 99.7456 110.143 99.7456 110.429V115.153H97.0402V98.3625H99.2303L99.6168 99.9084H99.7456C99.9603 99.5792 100.218 99.2858 100.519 99.0281C100.833 98.7561 101.206 98.5414 101.635 98.384C102.079 98.2265 102.587 98.1478 103.16 98.1478ZM102.387 100.338C101.757 100.338 101.249 100.467 100.862 100.724C100.476 100.968 100.196 101.347 100.025 101.862C99.853 102.378 99.7599 103.022 99.7456 103.795V104.138C99.7456 104.969 99.8243 105.67 99.9818 106.243C100.154 106.815 100.433 107.252 100.819 107.552C101.22 107.853 101.757 108.003 102.43 108.003C103.002 108.003 103.467 107.846 103.825 107.531C104.197 107.216 104.469 106.772 104.641 106.2C104.827 105.613 104.92 104.918 104.92 104.117C104.92 102.914 104.713 101.984 104.298 101.326C103.897 100.667 103.26 100.338 102.387 100.338ZM119.311 100.445H115.489V110H112.805V100.445H109.004V98.3625H119.311V100.445ZM124.236 98.3625V102.979H129.368V98.3625H132.073V110H129.368V105.062H124.236V110H121.531V98.3625H124.236ZM140.24 98.1478C141.284 98.1478 142.179 98.3625 142.923 98.7919C143.682 99.207 144.269 99.8082 144.684 100.596C145.099 101.368 145.307 102.313 145.307 103.43V104.804H137.62C137.649 105.863 137.942 106.686 138.5 107.273C139.059 107.846 139.832 108.132 140.819 108.132C141.578 108.132 142.251 108.06 142.838 107.917C143.439 107.76 144.054 107.538 144.684 107.252V109.42C144.112 109.692 143.517 109.893 142.902 110.021C142.286 110.15 141.549 110.215 140.69 110.215C139.56 110.215 138.55 110 137.663 109.571C136.79 109.127 136.103 108.461 135.602 107.574C135.115 106.686 134.872 105.584 134.872 104.267C134.872 102.936 135.094 101.819 135.537 100.918C135.995 100.001 136.625 99.3144 137.427 98.8563C138.228 98.384 139.166 98.1478 140.24 98.1478ZM140.24 100.145C139.524 100.145 138.937 100.381 138.479 100.853C138.035 101.311 137.77 101.998 137.684 102.914H142.687C142.687 102.37 142.594 101.891 142.408 101.476C142.236 101.061 141.972 100.739 141.614 100.51C141.256 100.266 140.798 100.145 140.24 100.145ZM136.697 95.3136C136.697 94.8555 136.818 94.5263 137.062 94.3259C137.319 94.1255 137.627 94.0253 137.985 94.0253C138.329 94.0253 138.629 94.1255 138.887 94.3259C139.159 94.5263 139.295 94.8555 139.295 95.3136C139.295 95.743 139.159 96.0651 138.887 96.2798C138.629 96.4802 138.329 96.5804 137.985 96.5804C137.627 96.5804 137.319 96.4802 137.062 96.2798C136.818 96.0651 136.697 95.743 136.697 95.3136ZM140.862 95.3136C140.862 94.8555 140.984 94.5263 141.227 94.3259C141.485 94.1255 141.793 94.0253 142.15 94.0253C142.494 94.0253 142.795 94.1255 143.052 94.3259C143.324 94.5263 143.46 94.8555 143.46 95.3136C143.46 95.743 143.324 96.0651 143.052 96.2798C142.795 96.4802 142.494 96.5804 142.15 96.5804C141.793 96.5804 141.485 96.4802 141.227 96.2798C140.984 96.0651 140.862 95.743 140.862 95.3136ZM154.154 98.1478C155.514 98.1478 156.609 98.6559 157.439 99.6722C158.27 100.674 158.685 102.17 158.685 104.16C158.685 105.477 158.491 106.586 158.105 107.488C157.718 108.39 157.182 109.07 156.495 109.528C155.807 109.986 155.006 110.215 154.09 110.215C153.531 110.215 153.038 110.143 152.608 110C152.179 109.843 151.814 109.649 151.513 109.42C151.213 109.177 150.955 108.919 150.74 108.647H150.568C150.626 108.905 150.669 109.198 150.697 109.528C150.726 109.843 150.74 110.143 150.74 110.429V115.153H148.035V98.3625H150.225L150.611 99.9084H150.74C150.955 99.5792 151.213 99.2858 151.513 99.0281C151.828 98.7561 152.2 98.5414 152.63 98.384C153.073 98.2265 153.582 98.1478 154.154 98.1478ZM153.381 100.338C152.751 100.338 152.243 100.467 151.857 100.724C151.47 100.968 151.191 101.347 151.019 101.862C150.848 102.378 150.755 103.022 150.74 103.795V104.138C150.74 104.969 150.819 105.67 150.976 106.243C151.148 106.815 151.427 107.252 151.814 107.552C152.215 107.853 152.751 108.003 153.424 108.003C153.997 108.003 154.462 107.846 154.82 107.531C155.192 107.216 155.464 106.772 155.636 106.2C155.822 105.613 155.915 104.918 155.915 104.117C155.915 102.914 155.707 101.984 155.292 101.326C154.891 100.667 154.254 100.338 153.381 100.338ZM171.868 104.16C171.868 105.133 171.739 105.992 171.481 106.736C171.223 107.481 170.851 108.118 170.365 108.647C169.892 109.163 169.305 109.556 168.604 109.828C167.917 110.086 167.151 110.215 166.306 110.215C165.505 110.215 164.768 110.086 164.095 109.828C163.422 109.556 162.835 109.163 162.334 108.647C161.848 108.118 161.468 107.481 161.196 106.736C160.924 105.992 160.788 105.133 160.788 104.16C160.788 102.871 161.01 101.784 161.454 100.896C161.898 99.9943 162.535 99.3144 163.365 98.8563C164.209 98.384 165.204 98.1478 166.349 98.1478C167.437 98.1478 168.389 98.384 169.205 98.8563C170.035 99.3144 170.687 99.9943 171.159 100.896C171.631 101.784 171.868 102.871 171.868 104.16ZM163.558 104.16C163.558 104.976 163.651 105.677 163.837 106.264C164.038 106.837 164.338 107.273 164.739 107.574C165.154 107.874 165.684 108.025 166.328 108.025C166.986 108.025 167.516 107.874 167.917 107.574C168.332 107.273 168.633 106.837 168.819 106.264C169.005 105.677 169.098 104.976 169.098 104.16C169.098 103.33 168.998 102.635 168.797 102.077C168.611 101.504 168.31 101.075 167.895 100.789C167.495 100.488 166.972 100.338 166.328 100.338C165.355 100.338 164.646 100.667 164.202 101.326C163.773 101.984 163.558 102.929 163.558 104.16ZM188.513 98.3625V110H186.023V103.644C186.023 103.172 186.03 102.707 186.044 102.249C186.073 101.791 186.102 101.354 186.13 100.939H186.066L182.63 110H180.548L177.112 100.939H177.048C177.091 101.354 177.119 101.791 177.134 102.249C177.148 102.707 177.155 103.201 177.155 103.73V110H174.664V98.3625H178.422L181.621 106.801L184.842 98.3625H188.513Z" fill="#40A626"/>
<path fill-rule="evenodd" clip-rule="evenodd" d="M83.9286 127L82.3468 128.301L80.8353 129.707L79.3941 131.183L78.0584 132.73L76.8281 134.347L75.6329 136.034L74.5784 137.827L73.5942 139.654L72.7154 141.517L71.9772 143.451L71.3093 145.454L70.7469 147.493L70.3251 149.567L70.0088 151.711L69.833 153.856L69.7627 156.07L69.7978 157.898L69.9385 159.726L70.5009 163.311L71.4148 166.826L72.6099 170.201L74.1214 173.435L75.9142 176.493L77.9178 179.34L80.1674 181.941L80.8002 181.414L81.1165 181.098L81.4329 180.746L81.7493 180.36L82.0656 179.938L82.7335 178.918L83.3662 177.688L83.9989 176.212L84.5965 174.419L85.1941 172.31L85.2995 171.818L85.3698 171.396L85.405 171.044L85.4401 170.798V170.658V170.693L85.4753 171.326L85.5104 172.38L85.4401 173.681L85.2995 175.157L85.0183 176.739L84.5262 178.426L84.2098 179.27L83.8583 180.149L83.4014 180.992L82.9092 181.871L82.3468 182.715L81.7141 183.523L80.2378 185.175L78.6559 186.862L75.4572 189.991L72.9615 192.311L71.9421 193.225H73.0318H73.8402L80.8705 187.39L85.8971 183.136L87.725 181.555L88.2874 181.027L88.6389 180.676L90.7128 178.145L92.5758 175.403L94.1928 172.521L95.5285 169.463L96.6182 166.299L97.3915 162.995L97.8837 159.585L98.0594 156.07L97.9891 153.856L97.8133 151.711L97.497 149.567L97.0752 147.493L96.5128 145.454L95.8449 143.451L95.0716 141.517L94.2279 139.654L93.2437 137.827L92.154 136.034L90.994 134.347L89.7637 132.73L88.428 131.183L86.9868 129.707L85.5104 128.301L83.9286 127Z" fill="url(#paint0_linear_257_52)"/>
<path d="M77.479 183.121C70.515 173.23 68.7259 167.334 67.6579 156.463L47.3002 190.612C46.6878 191.639 47.4279 192.942 48.6238 192.942H69.0609L77.479 183.121Z" fill="url(#paint1_radial_257_52)"/>
<path d="M120.285 190.612L99.9273 156.463C99.2258 175.404 91.0515 183.725 77.479 192.942H118.961C120.157 192.942 120.897 191.639 120.285 190.612Z" fill="url(#paint2_radial_257_52)"/>
<path fill-rule="evenodd" clip-rule="evenodd" d="M83.9984 127.105L86.3184 129.988L88.4275 133.081L90.2202 136.421L91.7668 139.936L92.962 143.662L93.8759 147.493L94.4383 151.5L94.6141 155.613L94.4735 159.48L94.0165 163.241L93.2783 166.897L92.259 170.377L90.9232 173.681L89.3414 176.809L87.4432 179.762L86.4239 181.168L85.299 182.504L84.2093 183.593L82.733 184.964L79.1124 188.022L75.527 191.01L74.0858 192.276L73.0312 193.225H73.8397L80.8348 187.39L85.8966 183.136L87.6893 181.555L88.2869 180.992L88.6384 180.676L90.7123 178.145L92.5753 175.403L94.1923 172.521L95.5632 169.463L96.6177 166.264L97.4262 162.96L97.8831 159.55L98.0589 156.035L97.9886 153.856L97.8128 151.711L97.4965 149.567L97.0747 147.528L96.5122 145.49L95.8795 143.486L95.1062 141.588L94.2626 139.69L93.2783 137.897L92.2238 136.139L91.0638 134.452L89.7984 132.835L88.4978 131.288L87.0566 129.812L85.5802 128.406L83.9984 127.105Z" fill="url(#paint3_linear_257_52)"/>
<path fill-rule="evenodd" clip-rule="evenodd" d="M83.4367 132.027L84.5264 149.673L85.2997 162.292L85.6161 169.111V169.568L85.5809 170.025L85.5106 170.447L85.4403 170.869L85.0536 172.697L84.667 174.314L84.21 175.684L83.7531 176.915L83.2961 177.969L82.804 178.883L82.3119 179.657L81.8197 180.36L81.5737 180.711L81.3276 181.027L81.0464 181.309L80.8355 181.555L80.6246 181.73L80.4488 181.871L80.3785 181.906L80.3082 181.941V181.976H80.2731H80.2379L79.9567 181.695L79.5349 181.273L78.4452 180.008L77.1446 178.25L75.7034 176.106L74.2974 173.681L72.9616 171.08L72.3992 169.709L71.9071 168.373L71.5204 167.002L71.2041 165.666L71.0283 163.909L71.0635 162.011L71.3095 160.042L71.7313 157.968L72.2938 155.824L73.0319 153.645L74.7895 149.145L76.8634 144.611L79.1131 140.182L83.4367 132.027Z" fill="url(#paint4_linear_257_52)"/>
<path fill-rule="evenodd" clip-rule="evenodd" d="M139.397 205.985C137.745 205.985 136.726 204.684 136.726 202.716C136.726 200.782 137.745 199.517 139.397 199.517C141.155 199.517 142.139 200.782 142.139 202.716C142.139 204.684 141.155 205.985 139.397 205.985ZM139.397 205.422C140.663 205.422 141.366 204.403 141.366 202.716C141.366 201.204 140.627 200.079 139.397 200.079C138.202 200.079 137.464 201.204 137.464 202.716C137.464 204.368 138.202 205.422 139.397 205.422Z" fill="#1B1918"/>
<path fill-rule="evenodd" clip-rule="evenodd" d="M145.654 205.985C144.072 205.985 142.842 204.754 142.842 202.716C142.842 200.853 144.072 199.517 145.654 199.517C146.427 199.517 146.884 199.658 147.236 199.904L146.99 200.466C146.673 200.185 146.251 200.079 145.654 200.079C144.74 200.079 143.58 201.028 143.58 202.645C143.58 204.262 144.459 205.317 145.724 205.317C146.357 205.317 146.673 205.176 147.06 204.93L147.236 205.598C146.99 205.739 146.427 205.985 145.654 205.985Z" fill="#1B1918"/>
<path fill-rule="evenodd" clip-rule="evenodd" d="M148.36 199.587L149.099 199.517V202.329H152.297V199.587L153.071 199.517V205.914H152.297V202.997H149.099V205.914H148.36V199.587Z" fill="#1B1918"/>
<path fill-rule="evenodd" clip-rule="evenodd" d="M157.043 205.985C155.39 205.985 154.371 204.684 154.371 202.716C154.371 200.782 155.39 199.517 157.043 199.517C158.8 199.517 159.784 200.782 159.784 202.716C159.784 204.684 158.8 205.985 157.043 205.985ZM157.043 205.422C158.308 205.422 159.011 204.403 159.011 202.716C159.011 201.204 158.273 200.079 157.043 200.079C155.847 200.079 155.109 201.204 155.109 202.716C155.109 204.368 155.847 205.422 157.043 205.422Z" fill="#1B1918"/>
<path fill-rule="evenodd" clip-rule="evenodd" d="M161.085 199.587H162.948C163.51 199.587 164.038 199.587 164.459 199.904C164.706 200.079 164.846 200.255 164.952 200.501C165.057 200.712 165.092 200.958 165.092 201.239C165.092 201.661 164.987 202.048 164.6 202.364C164.495 202.505 164.354 202.575 164.213 202.645C164.424 202.681 164.67 202.786 164.916 203.067C165.022 203.173 165.092 203.313 165.162 203.454C165.233 203.63 165.268 203.841 165.268 204.051C165.268 204.403 165.198 204.684 165.092 204.93C164.987 205.141 164.846 205.352 164.67 205.493C164.178 205.879 163.581 205.914 163.194 205.914H161.085V199.587ZM163.229 205.282C163.616 205.282 163.967 205.211 164.178 205.036C164.319 204.93 164.495 204.684 164.495 204.192C164.495 203.77 164.354 203.489 164.178 203.313C163.862 203.067 163.546 203.032 163.229 203.032H162.386L162.596 202.399H163.124C163.335 202.399 163.475 202.364 163.651 202.329C163.792 202.294 163.967 202.224 164.073 202.083C164.249 201.907 164.354 201.556 164.354 201.274C164.354 200.853 164.213 200.642 164.038 200.501C163.721 200.22 163.299 200.22 162.878 200.22H161.823V205.282H163.229Z" fill="#1B1918"/>
<path fill-rule="evenodd" clip-rule="evenodd" d="M170.401 205.176C170.084 205.457 169.838 205.633 169.628 205.739C169.311 205.914 168.96 205.985 168.573 205.985C167.87 205.985 167.448 205.739 167.202 205.457C167.026 205.211 166.815 204.825 166.815 204.262C166.815 203.841 166.886 203.524 167.132 203.208C167.518 202.681 168.081 202.505 168.573 202.399L170.366 202.048V201.521C170.366 201.239 170.331 201.028 170.225 200.818C170.12 200.607 169.979 200.466 169.803 200.361C169.522 200.185 169.206 200.15 168.96 200.15C168.678 200.15 168.327 200.185 168.081 200.255C167.765 200.361 167.518 200.501 167.343 200.607L167.061 200.079C167.237 199.974 167.554 199.798 167.835 199.693C168.257 199.552 168.678 199.517 169.065 199.517C169.628 199.517 170.26 199.622 170.682 200.15C171.069 200.607 171.104 201.204 171.104 201.521V204.684L171.28 205.914H170.541L170.401 205.176ZM168.96 202.891C168.573 202.962 168.116 203.067 167.8 203.384C167.589 203.63 167.518 203.911 167.518 204.192C167.518 204.473 167.554 204.79 167.835 205.036C168.151 205.317 168.503 205.317 168.749 205.317C168.96 205.317 169.171 205.317 169.381 205.247C169.663 205.176 170.014 205.001 170.366 204.684V202.575L168.96 202.891Z" fill="#1B1918"/>
<path fill-rule="evenodd" clip-rule="evenodd" d="M175.392 199.587L176.095 199.517V200.22C176.552 199.763 177.044 199.517 177.887 199.517C179.118 199.517 180.242 200.361 180.242 202.505C180.242 204.684 178.907 205.985 177.325 205.985C176.868 205.985 176.446 205.914 176.095 205.809V208.34H175.392V199.587ZM177.325 205.422C178.555 205.422 179.504 204.262 179.504 202.681C179.504 200.888 178.731 200.15 177.606 200.15C177.149 200.15 176.411 200.501 176.095 200.853V205.211C176.446 205.352 176.938 205.422 177.325 205.422Z" fill="#1B1918"/>
<path fill-rule="evenodd" clip-rule="evenodd" d="M183.617 205.985C181.965 205.985 180.945 204.684 180.945 202.716C180.945 200.782 181.965 199.517 183.617 199.517C185.374 199.517 186.359 200.782 186.359 202.716C186.359 204.684 185.374 205.985 183.617 205.985ZM183.617 205.422C184.882 205.422 185.585 204.403 185.585 202.716C185.585 201.204 184.847 200.079 183.617 200.079C182.422 200.079 181.683 201.204 181.683 202.716C181.683 204.368 182.422 205.422 183.617 205.422Z" fill="#1B1918"/>
<path fill-rule="evenodd" clip-rule="evenodd" d="M189.909 205.985C188.327 205.985 187.097 204.754 187.097 202.716C187.097 200.853 188.327 199.517 189.909 199.517C190.682 199.517 191.139 199.658 191.491 199.904L191.245 200.466C190.928 200.185 190.506 200.079 189.909 200.079C188.995 200.079 187.835 201.028 187.835 202.645C187.835 204.262 188.714 205.317 189.979 205.317C190.612 205.317 190.928 205.176 191.315 204.93L191.491 205.598C191.245 205.739 190.682 205.985 189.909 205.985Z" fill="#1B1918"/>
<path fill-rule="evenodd" clip-rule="evenodd" d="M193.53 200.22H191.737V199.587H196.272L196.061 200.22H194.303V205.914H193.53V200.22Z" fill="#1B1918"/>
<path fill-rule="evenodd" clip-rule="evenodd" d="M200.419 205.176C200.103 205.457 199.857 205.633 199.646 205.739C199.33 205.914 198.978 205.985 198.592 205.985C197.889 205.985 197.467 205.739 197.221 205.457C197.045 205.211 196.834 204.825 196.834 204.262C196.834 203.841 196.904 203.524 197.15 203.208C197.537 202.681 198.099 202.505 198.592 202.399L200.384 202.048V201.521C200.384 201.239 200.349 201.028 200.244 200.818C200.138 200.607 199.998 200.466 199.822 200.361C199.541 200.185 199.224 200.15 198.978 200.15C198.697 200.15 198.345 200.185 198.099 200.255C197.783 200.361 197.537 200.501 197.361 200.607L197.08 200.079C197.256 199.974 197.572 199.798 197.853 199.693C198.275 199.552 198.697 199.517 199.084 199.517C199.646 199.517 200.279 199.622 200.701 200.15C201.087 200.607 201.122 201.204 201.122 201.521V204.684L201.298 205.914H200.56L200.419 205.176ZM198.978 202.891C198.592 202.962 198.135 203.067 197.818 203.384C197.607 203.63 197.537 203.911 197.537 204.192C197.537 204.473 197.572 204.79 197.853 205.036C198.17 205.317 198.521 205.317 198.767 205.317C198.978 205.317 199.189 205.317 199.4 205.247C199.681 205.176 200.068 205.001 200.384 204.684V202.575L198.978 202.891Z" fill="#1B1918"/>
<path fill-rule="evenodd" clip-rule="evenodd" d="M151.841 138.987H146.392C140.381 138.987 137.077 142.396 137.077 148.688C137.077 148.935 137.077 149.145 137.077 149.392C137.288 155.438 140.346 158.425 146.392 158.425H146.814L146.849 163.382H150.294C150.681 163.382 150.962 163.276 151.138 163.1C151.454 162.714 151.419 162.116 151.419 162.011V158.425H151.841C157.781 158.425 160.91 155.402 161.121 149.462C161.156 149.216 161.156 149.005 161.156 148.759C161.156 142.432 157.852 138.987 151.841 138.987ZM151.841 155.93H151.419V141.447H151.841C154.793 141.447 156.375 143.943 156.375 148.724C156.375 149.005 156.375 149.321 156.34 149.638C156.199 153.75 154.618 155.93 151.841 155.93ZM146.392 141.447H146.814V155.93H146.392C143.44 155.93 141.858 153.434 141.858 148.724C141.858 143.943 143.44 141.447 146.392 141.447Z" fill="#1B1918"/>
<path fill-rule="evenodd" clip-rule="evenodd" d="M169.627 138.846C167.342 138.846 165.444 139.092 164.214 139.584L164.038 139.654V139.865C164.108 140.393 164.284 141.131 164.776 141.623C165.163 142.01 165.655 142.15 166.358 142.08C167.096 141.974 167.94 141.869 168.748 141.869C172.474 141.869 175.04 144.576 175.673 149.145L175.743 149.637H167.799V151.536C167.799 151.571 167.799 152.063 168.08 152.344C168.256 152.485 168.432 152.555 168.678 152.555H175.814L175.779 153.012C175.427 157.968 173.107 160.71 169.24 160.71L168.397 160.745C167.87 160.745 167.307 160.71 166.745 160.464C166.499 160.358 166.288 160.288 166.042 160.288C164.952 160.288 164.284 161.8 164.038 162.432L163.968 162.678L164.214 162.784C165.901 163.522 168.186 163.803 169.592 163.803C179.188 163.803 180.594 156 180.594 151.36C180.594 145.279 177.747 138.846 169.627 138.846Z" fill="#1B1918"/>
<path fill-rule="evenodd" clip-rule="evenodd" d="M200.419 162.678L200.349 162.432C200.068 161.659 199.435 160.358 198.275 160.358C198.135 160.358 197.994 160.394 197.853 160.429C197.045 160.605 196.166 160.71 195.147 160.71C190.964 160.71 188.749 157.476 188.749 151.36C188.749 145.419 191.315 141.869 195.639 141.869H196.377C196.975 141.869 197.643 141.904 198.31 142.115C198.416 142.15 198.556 142.185 198.662 142.185C199.611 142.185 200.103 140.568 200.279 139.9L200.314 139.654L200.103 139.549C198.873 139.092 197.01 138.846 194.76 138.846C186.64 138.846 183.793 145.279 183.793 151.36C183.793 156 185.199 163.803 194.795 163.803C196.342 163.803 198.627 163.487 200.173 162.784L200.419 162.678Z" fill="#1B1918"/>
<path fill-rule="evenodd" clip-rule="evenodd" d="M142.033 167.775H139.538C139.502 167.775 139.467 167.775 139.362 167.775C138.624 167.775 137.253 168.057 136.585 170.06C135.952 171.888 132.402 182.469 130.398 188.48L129.238 191.995H132.191C132.648 191.995 132.964 191.678 133.07 191.467L134.792 186.019H142.279C142.701 186.019 143.053 185.843 143.299 185.597C143.369 185.527 143.439 185.421 143.51 185.316L144.951 190.061C144.951 190.132 145.478 191.995 147.693 191.995H150.434L142.104 167.951L142.033 167.775ZM135.636 183.207L139.081 172.205L142.771 183.207H135.636Z" fill="#1B1918"/>
<path fill-rule="evenodd" clip-rule="evenodd" d="M153.738 170.939V191.995H157.57C157.851 191.995 158.062 191.924 158.202 191.749C158.589 191.327 158.554 190.553 158.554 190.483V170.693H165.69C166.217 170.693 166.639 170.517 166.92 170.201C167.447 169.638 167.588 168.76 167.658 168.092V167.811H156.796C156.48 167.811 153.738 167.986 153.738 170.939Z" fill="#1B1918"/>
<path fill-rule="evenodd" clip-rule="evenodd" d="M178.38 167.811H173.916C173.775 167.811 170.857 167.916 170.857 170.939V191.995H174.478C175.181 191.995 175.533 191.327 175.638 190.659V182.187H178.274C181.438 182.187 186.64 181.238 186.64 174.806C186.64 170.095 183.934 167.811 178.38 167.811ZM181.825 174.735C181.825 177.758 180.383 179.27 177.466 179.27H175.638V170.482H177.185C180.243 170.482 181.825 171.958 181.825 174.735Z" fill="#1B1918"/>
<path fill-rule="evenodd" clip-rule="evenodd" d="M199.224 167.459C190.964 167.459 189.241 174.278 189.241 180.008C189.241 185.667 190.928 192.416 199.119 192.416C207.625 192.416 208.926 184.613 208.926 179.973C208.926 174.243 207.239 167.459 199.224 167.459ZM194.057 178.426C194.057 174.419 194.444 170.131 199.119 170.131C204.075 170.131 204.075 175.755 204.075 178.461V181.484C204.075 186.827 202.353 189.675 199.119 189.675C194.057 189.675 194.057 183.91 194.057 181.449V178.426Z" fill="#1B1918"/>
<defs>
<linearGradient id="paint0_linear_257_52" x1="83.8935" y1="127" x2="83.8935" y2="193.225" gradientUnits="userSpaceOnUse">
<stop offset="0.23" stop-color="#42AA27"/>
<stop offset="1" stop-color="#379223"/>
</linearGradient>
<radialGradient id="paint1_radial_257_52" cx="0" cy="0" r="1" gradientUnits="userSpaceOnUse" gradientTransform="translate(83.7926 174.703) rotate(90) scale(18.2392 29.285)">
<stop stop-color="#0180C7"/>
<stop offset="1" stop-color="#0163B0"/>
</radialGradient>
<radialGradient id="paint2_radial_257_52" cx="0" cy="0" r="1" gradientUnits="userSpaceOnUse" gradientTransform="translate(83.7926 174.703) rotate(90) scale(18.2392 29.285)">
<stop stop-color="#0180C7"/>
<stop offset="1" stop-color="#0163B0"/>
</radialGradient>
<linearGradient id="paint3_linear_257_52" x1="85.5451" y1="127.105" x2="85.5451" y2="193.225" gradientUnits="userSpaceOnUse">
<stop offset="0.23" stop-color="#42AA27"/>
<stop offset="1" stop-color="#2B761D"/>
</linearGradient>
<linearGradient id="paint4_linear_257_52" x1="90.1066" y1="185.225" x2="74.6734" y2="147.344" gradientUnits="userSpaceOnUse">
<stop offset="0.24" stop-color="#00A22D"/>
<stop offset="1" stop-color="white" stop-opacity="0"/>
</linearGradient>
</defs>
</svg>
