<svg width="36" height="26" viewBox="0 0 36 26" fill="none" xmlns="http://www.w3.org/2000/svg">
<path d="M34.2452 4.75309C34.0515 4.02616 33.6722 3.36336 33.1451 2.83106C32.6181 2.29875 31.9619 1.9156 31.2422 1.71995C29.2753 0.952442 10.2201 0.576413 4.69174 1.74142C3.97192 1.93713 3.31563 2.32041 2.7886 2.85288C2.26157 3.38535 1.88227 4.04832 1.6887 4.77541C0.800459 8.70998 0.73331 17.2161 1.7108 21.2391C1.9045 21.9661 2.28385 22.6289 2.81088 23.1612C3.33791 23.6935 3.99412 24.0766 4.71384 24.2723C8.60936 25.178 27.1291 25.3051 31.2643 24.2723C31.984 24.0766 32.6402 23.6935 33.1672 23.1612C33.6943 22.6289 34.0736 21.9661 34.2673 21.2391C35.2142 16.9526 35.2814 8.97354 34.2452 4.75309V4.75309Z" stroke="#4F4F4F" stroke-width="1.5" stroke-linecap="round" stroke-linejoin="round"/>
<path d="M23.582 12.9957L14.7021 7.85232V18.139L23.582 12.9957Z" stroke="#4F4F4F" stroke-width="1.5" stroke-linecap="round" stroke-linejoin="round"/>
</svg>
